<?xml version="1.0" standalone="no"?>
<!DOCTYPE svg PUBLIC "-//W3C//DTD SVG 20010904//EN"
 "http://www.w3.org/TR/2001/REC-SVG-20010904/DTD/svg10.dtd">
<svg version="1.0" xmlns="http://www.w3.org/2000/svg"
 width="1027.000000pt" height="1023.000000pt" viewBox="0 0 1027.000000 1023.000000"
 preserveAspectRatio="xMidYMid meet">

<g transform="translate(0.000000,1023.000000) scale(0.100000,-0.100000)"
fill="#000000" stroke="none">
<path d="M7820 10210 c14 -10 33 -26 42 -34 10 -9 40 -28 68 -43 28 -16 77
-42 108 -60 31 -18 77 -42 102 -54 25 -11 58 -27 74 -35 16 -8 35 -14 43 -14
7 0 13 -4 13 -10 0 -5 9 -10 21 -10 11 0 29 -4 39 -10 10 -5 33 -12 51 -15 19
-3 75 -15 124 -26 78 -19 120 -21 305 -21 199 1 226 3 355 31 77 16 141 34
143 40 2 6 14 8 27 5 13 -3 36 1 52 9 56 30 140 58 156 51 9 -3 32 3 51 14 53
31 81 32 82 3 1 -14 -2 -38 -7 -53 -4 -16 -4 -26 1 -23 10 6 37 131 45 213 l6
62 -168 0 c-150 0 -177 -3 -253 -25 -136 -41 -260 -57 -425 -57 -164 0 -355
26 -459 62 -54 18 -83 20 -340 20 -279 -1 -281 -1 -256 -20z"/>
<path d="M5034 9471 c3 -5 -11 -11 -32 -14 -20 -3 -55 -10 -77 -16 -22 -6 -63
-11 -92 -11 -28 0 -53 -4 -55 -10 -3 -9 -77 -29 -120 -33 -9 -1 -14 -5 -11
-10 3 -5 -3 -7 -13 -6 -11 2 -32 -1 -49 -5 -16 -5 -43 -8 -58 -7 -15 2 -35 -3
-44 -11 -13 -10 -17 -10 -20 0 -3 6 -12 12 -21 12 -15 0 -15 -2 -2 -10 17 -11
10 -13 -45 -12 -49 1 -75 -7 -75 -23 0 -8 -9 -15 -21 -15 -11 0 -17 -4 -14
-10 4 -6 -9 -11 -32 -11 l-38 -2 42 -6 c55 -9 62 -17 29 -32 -17 -8 -25 -18
-21 -27 7 -18 -34 -62 -58 -62 -43 0 -63 55 -25 69 l22 8 -22 12 c-20 11 -26
8 -23 -11 0 -5 -2 -7 -7 -7 -33 5 -41 -2 -35 -32 4 -23 2 -34 -10 -40 -9 -5
-13 -17 -10 -28 7 -26 -14 -62 -32 -55 -8 3 -20 2 -26 -2 -9 -5 -7 -9 6 -14
18 -6 18 -8 -4 -19 -17 -9 -26 -10 -34 -2 -6 6 -19 11 -29 11 -10 0 -18 5 -18
11 0 8 -4 8 -12 2 -7 -5 -38 -15 -70 -22 -31 -7 -59 -19 -62 -27 -3 -7 -12
-14 -21 -14 -23 0 -18 -16 11 -29 l25 -11 -42 -40 c-24 -22 -51 -40 -62 -40
-10 0 -15 -5 -12 -10 4 -6 10 -8 15 -5 16 10 120 13 120 4 0 -5 -9 -9 -20 -9
-11 0 -23 -7 -27 -16 -4 -12 -8 -13 -14 -3 -6 11 -11 10 -26 -3 -10 -8 -27
-18 -38 -22 -32 -9 -99 -72 -91 -85 10 -16 21 -14 53 13 15 13 38 26 50 30 18
6 21 4 16 -15 -3 -12 -14 -24 -25 -26 -20 -6 -25 -23 -6 -23 6 0 -6 -16 -28
-35 l-39 -34 -220 0 c-121 -1 -422 4 -670 9 -247 5 -700 14 -1005 20 -305 5
-710 14 -900 20 -190 5 -461 12 -602 16 l-258 6 0 -156 0 -156 178 0 c179 -1
253 -2 952 -20 212 -5 601 -14 865 -20 264 -5 671 -15 905 -21 234 -5 471 -10
528 -11 110 0 112 -1 92 -54 -6 -14 -12 -56 -15 -92 -2 -39 -9 -68 -17 -73
-15 -9 -14 -119 1 -128 17 -11 20 -101 5 -152 -8 -27 -13 -58 -10 -67 3 -9 8
-44 11 -78 6 -70 43 -331 51 -357 3 -10 6 -54 6 -99 0 -47 3 -76 8 -68 5 8 12
-8 20 -46 7 -32 15 -64 17 -71 3 -7 -2 -13 -11 -13 -9 0 -16 5 -16 10 0 6 -7
10 -15 10 -8 0 -15 -4 -15 -8 0 -15 22 -30 36 -25 10 4 14 -4 14 -28 0 -30 1
-31 14 -14 12 17 14 14 21 -34 5 -36 4 -56 -4 -60 -8 -5 -5 -13 9 -26 27 -24
25 -33 -6 -27 -29 5 -42 28 -25 45 15 15 14 27 -3 27 -7 0 -21 -12 -31 -26
-12 -18 -20 -23 -27 -16 -8 8 -6 15 4 26 9 8 18 12 21 9 10 -9 19 44 12 66
l-6 21 -20 -22 -20 -23 17 28 c16 26 16 29 -2 48 -15 17 -16 24 -6 39 17 27
15 33 -6 28 -11 -3 -19 0 -19 8 0 8 9 14 19 14 11 0 18 7 18 20 0 14 -6 20
-16 18 -20 -4 -27 27 -14 64 5 15 5 30 0 33 -5 3 -11 -3 -13 -12 -4 -15 -6
-14 -12 5 -4 13 -13 21 -20 18 -6 -2 -17 -1 -24 4 -10 6 -10 12 -1 30 10 19 8
29 -17 68 -16 26 -36 48 -46 50 -23 5 -21 -20 3 -41 12 -10 18 -22 15 -27 -3
-6 -1 -10 4 -10 6 0 11 -19 11 -43 0 -24 5 -48 12 -55 8 -8 8 -15 -1 -26 -7
-8 -8 -17 -3 -20 5 -3 16 4 26 16 17 19 19 19 34 4 13 -13 14 -19 5 -24 -7 -4
-13 -23 -15 -41 -1 -19 -10 -37 -20 -42 -20 -11 -24 -35 -6 -41 8 -3 12 -32
12 -86 1 -45 4 -82 9 -82 4 0 7 -8 7 -19 0 -12 -9 -20 -25 -23 -27 -6 -34 13
-15 42 5 8 5 17 1 20 -5 3 -12 16 -16 30 -7 22 -6 23 9 11 14 -11 16 -11 16 1
0 8 -4 18 -9 24 -5 5 -11 20 -13 34 l-4 25 -13 -26 c-10 -19 -10 -35 -2 -63 9
-34 8 -38 -7 -34 -14 4 -18 -3 -20 -34 -2 -35 0 -39 16 -34 28 9 45 -16 33
-47 -6 -14 -18 -81 -28 -149 -9 -68 -19 -115 -21 -105 -2 9 -7 17 -10 17 -4 0
-18 10 -32 21 l-25 21 28 -6 c31 -7 34 0 10 26 -13 15 -14 18 -1 18 10 0 13 8
10 29 -5 35 -34 44 -69 23 -12 -7 -24 -9 -27 -4 -3 5 -17 7 -31 4 -30 -5 -31
-2 -6 27 14 16 21 18 25 9 4 -10 9 -8 18 6 7 11 26 34 42 53 25 29 26 37 5 35
-4 -1 -23 14 -43 33 -33 31 -35 35 -19 44 16 9 16 12 3 21 -25 17 -42 12 -35
-10 4 -12 2 -20 -5 -20 -6 0 -8 -4 -5 -10 3 -5 1 -18 -5 -27 -11 -17 -11 -17
-6 0 3 10 -3 26 -14 37 -15 15 -16 20 -6 20 27 0 29 22 3 46 -15 13 -31 24
-37 24 -5 0 -10 7 -10 15 0 8 -7 15 -16 15 -8 0 -13 4 -10 9 3 4 -1 17 -9 27
-11 15 -15 16 -16 4 -1 -8 -1 -19 0 -24 3 -15 -10 -46 -20 -46 -5 0 -9 7 -9
15 0 19 -31 55 -47 55 -7 0 -10 7 -6 16 7 18 49 15 45 -4 -3 -16 6 -15 23 2
17 17 9 26 -22 26 -19 0 -23 4 -19 18 3 9 -1 30 -9 46 -18 35 -19 60 -2 52 6
-3 20 -9 30 -12 9 -4 17 -12 17 -18 0 -6 24 -19 53 -27 36 -11 56 -23 64 -40
13 -24 13 -24 13 9 0 22 -5 32 -15 32 -8 0 -15 7 -15 16 0 23 32 13 46 -14 6
-12 14 -19 19 -14 4 4 5 -3 2 -15 -7 -29 9 -40 18 -13 9 27 16 25 50 -10 16
-16 39 -30 52 -30 13 0 23 -4 23 -10 0 -5 5 -10 10 -10 6 0 10 6 10 14 0 15
-21 26 -51 26 -21 0 -23 8 -10 29 8 12 13 12 24 3 12 -10 16 -9 21 4 8 22 8
24 -6 24 -6 0 -19 7 -28 15 -15 14 -18 14 -30 0 -8 -10 -9 -15 -1 -15 6 0 11
-4 11 -10 0 -18 -25 -11 -38 11 -11 16 -16 18 -27 9 -12 -10 -16 -8 -23 9 -4
12 -21 31 -37 41 -22 14 -25 20 -12 20 18 0 21 8 11 34 -8 21 -23 20 -41 -1
-13 -17 -14 -16 -9 7 5 22 0 28 -26 38 -31 11 -31 12 -13 32 14 16 21 18 28 8
7 -10 10 -10 14 0 2 6 13 12 23 12 15 0 30 18 30 35 0 2 -13 0 -30 -5 -25 -7
-30 -6 -30 8 0 11 -13 21 -35 28 -39 12 -45 4 -15 -26 11 -11 20 -25 20 -31 0
-18 -24 -4 -35 20 -5 12 -21 24 -35 27 -14 3 -33 8 -42 11 -14 3 -18 -2 -18
-21 0 -24 -2 -25 -20 -14 -17 11 -22 10 -30 -2 -7 -12 -12 -12 -22 -2 -9 9 -9
12 5 12 20 0 22 21 5 38 -9 9 -9 12 0 12 7 0 12 -4 12 -10 0 -5 7 -10 15 -10
8 0 15 6 15 14 0 15 -21 26 -51 26 -16 0 -18 -5 -13 -25 4 -18 1 -27 -10 -31
-19 -7 -22 -44 -3 -44 7 0 17 -14 22 -32 6 -17 16 -33 23 -36 8 -2 10 2 6 13
-5 13 -2 16 12 13 11 -2 20 -13 22 -26 4 -25 12 -28 30 -10 9 9 12 7 12 -9 0
-12 -8 -24 -17 -26 -15 -4 -15 -6 4 -12 26 -8 22 -24 -5 -21 -9 1 -21 12 -27
24 -12 28 -49 31 -40 3 5 -15 1 -18 -20 -13 -14 2 -25 11 -25 19 0 8 -13 20
-30 26 -19 7 -30 18 -30 31 0 15 -3 17 -11 9 -9 -9 -9 -20 0 -44 16 -46 13
-57 -9 -31 -23 27 -34 15 -16 -19 26 -51 27 -60 6 -49 -11 6 -21 15 -21 20 -1
6 -2 15 -3 22 0 6 -7 13 -13 16 -16 5 -16 1 -3 -32 11 -31 1 -33 -33 -6 -14
11 -34 19 -44 18 -19 -3 -23 2 -23 27 0 8 7 15 15 15 8 0 15 5 15 10 0 6 -5
10 -11 10 -15 0 -44 -31 -44 -48 0 -9 -13 -15 -37 -17 -21 -1 -38 2 -38 7 0 4
-7 8 -15 8 -24 0 -17 -24 15 -56 16 -16 30 -36 30 -44 0 -16 53 -44 78 -43 9
1 12 -6 9 -17 -3 -13 2 -20 20 -24 13 -4 21 -11 18 -16 -4 -6 -10 -8 -15 -5
-4 3 -13 -2 -20 -10 -7 -8 -8 -15 -3 -15 5 0 14 -21 21 -46 11 -42 15 -46 37
-40 25 6 35 -7 15 -19 -15 -9 -12 -25 5 -25 11 0 15 -11 15 -39 0 -22 6 -44
15 -51 20 -17 20 -51 0 -44 -9 4 -15 0 -15 -9 0 -8 5 -17 11 -19 8 -3 6 -10
-5 -20 -9 -9 -16 -21 -16 -27 0 -6 -5 -11 -11 -11 -5 0 -7 -5 -3 -11 5 -8 9
-8 14 1 4 7 16 9 29 5 27 -8 28 -29 1 -22 -15 4 -20 0 -20 -14 0 -10 4 -19 9
-19 5 0 11 -9 14 -20 6 -22 -17 -48 -28 -30 -3 5 -16 10 -29 10 -14 0 -28 10
-36 25 -14 26 -53 34 -65 14 -4 -6 -13 -8 -21 -5 -8 3 -14 1 -14 -4 0 -11 -37
-23 -50 -15 -6 4 -5 13 3 26 10 16 9 21 -3 29 -8 5 -18 10 -22 10 -12 0 -10
-18 3 -25 17 -11 -23 -33 -55 -30 -16 2 -33 10 -37 17 -6 9 -9 9 -9 1 0 -7 7
-16 16 -21 24 -14 7 -33 -22 -26 -20 5 -24 3 -24 -18 0 -28 -17 -48 -42 -48
-11 0 -15 -5 -12 -15 4 -10 0 -15 -12 -15 -15 0 -13 -5 11 -25 21 -17 25 -24
14 -25 -18 0 -34 -66 -23 -94 5 -13 -2 -16 -40 -16 -25 0 -46 5 -46 10 0 6 5
10 10 10 6 0 10 7 10 15 0 8 4 15 9 15 5 0 7 -9 4 -20 -4 -16 0 -20 17 -20 17
0 21 4 17 20 -3 11 -1 23 4 26 5 3 9 10 9 15 0 6 -4 7 -10 4 -6 -3 -10 1 -10
9 0 9 5 16 10 16 16 0 12 17 -6 24 -11 4 -18 -1 -21 -14 -3 -11 -9 -17 -15
-14 -5 3 -5 11 2 19 8 9 7 14 -4 18 -9 4 -12 14 -9 26 3 13 1 21 -7 21 -9 0
-11 -12 -7 -38 4 -32 1 -41 -17 -52 -11 -8 -31 -13 -43 -11 -29 3 -41 -19 -14
-26 21 -5 30 -23 11 -23 -5 0 -20 -11 -33 -24 -13 -12 -30 -26 -38 -29 -11 -4
-10 -6 4 -6 9 -1 17 -8 17 -16 0 -19 -11 -19 -35 -1 -16 11 -17 17 -7 29 10
11 9 17 -3 27 -8 7 -15 20 -15 29 0 13 -8 16 -42 12 -24 -2 -48 -11 -55 -20
-16 -20 -17 -68 -2 -77 8 -5 10 2 6 21 -5 28 17 65 31 51 3 -4 2 -10 -3 -14
-13 -9 -13 -82 -1 -82 5 0 6 -3 3 -7 -4 -3 -2 -13 5 -20 9 -11 9 -17 -3 -24
-20 -12 -30 -11 -28 4 4 29 -2 38 -23 35 -20 -3 -23 1 -20 25 3 19 -1 27 -10
26 -7 -2 -23 2 -36 9 -12 7 -27 10 -34 6 -6 -4 -9 -1 -6 7 3 8 12 13 22 11 9
-2 16 4 16 13 0 10 -9 15 -27 15 -16 0 -23 4 -18 8 20 14 17 35 -5 29 -11 -3
-20 -1 -20 4 0 5 -4 9 -10 9 -5 0 -10 -7 -10 -15 0 -28 -30 -15 -44 20 -8 19
-20 35 -25 35 -6 0 -11 11 -11 25 0 19 -5 25 -22 25 -13 0 -18 -4 -13 -8 6 -4
11 -14 13 -22 2 -8 15 -30 28 -47 28 -37 24 -43 -8 -13 -12 11 -26 20 -31 20
-5 0 1 -9 14 -20 18 -14 20 -19 9 -20 -12 0 -15 -8 -12 -35 3 -27 1 -35 -12
-35 -20 0 -21 -16 -1 -24 8 -3 15 -13 15 -22 0 -14 -2 -14 -16 -3 -13 11 -17
10 -25 -4 -32 -56 -99 -88 -99 -47 0 17 -5 20 -27 17 -15 -2 -30 -12 -34 -23
-4 -10 -8 -13 -8 -6 -2 27 21 49 48 44 14 -3 24 -2 21 1 -5 5 -47 14 -77 16
-7 1 -10 11 -7 26 5 26 -5 30 -63 26 -28 -3 -38 15 -12 22 12 3 18 10 14 16
-11 18 -32 12 -40 -11 -12 -40 -11 -68 2 -68 7 0 13 -4 13 -10 0 -5 4 -10 10
-10 5 0 9 10 7 21 -3 28 30 35 38 8 4 -10 4 -23 1 -28 -9 -13 -66 -19 -67 -7
0 6 -7 -4 -15 -21 -8 -18 -21 -33 -28 -33 -24 0 -26 16 -6 38 44 47 16 70 -90
76 -16 1 -24 -4 -22 -12 3 -17 -20 -11 -26 6 -2 7 3 12 12 12 9 0 16 3 16 6 0
15 -29 29 -64 32 -22 1 -45 7 -51 12 -7 5 -15 7 -18 3 -4 -3 -14 0 -22 7 -28
23 -41 -4 -14 -29 13 -11 18 -21 11 -21 -6 0 -23 11 -37 24 l-26 24 26 27 c18
21 25 24 25 12 0 -11 5 -14 15 -11 8 4 23 0 32 -7 15 -13 16 -11 9 15 -7 28
-36 67 -36 47 0 -15 -53 -8 -68 9 -10 11 -15 12 -18 3 -3 -7 -13 -13 -21 -13
-9 0 -13 -6 -10 -15 7 -17 -8 -29 -24 -19 -8 4 -7 9 2 15 10 6 11 9 2 9 -20 0
-15 20 5 21 10 0 12 3 5 6 -7 2 -13 21 -13 41 0 24 -3 32 -9 24 -6 -10 -10 -8
-14 10 -4 12 -2 25 3 26 15 6 12 19 -5 19 -8 0 -15 -4 -15 -8 0 -5 -7 -6 -15
-3 -22 9 -18 -9 5 -26 11 -8 20 -23 20 -33 0 -22 -18 -13 -31 17 -9 21 -10 21
-5 -1 3 -17 -1 -23 -15 -23 -10 0 -19 6 -20 13 0 6 -4 3 -9 -8 -7 -16 -9 -17
-9 -3 -1 9 3 19 9 23 5 3 6 13 3 21 -4 11 -8 12 -13 4 -10 -17 -60 9 -60 32 0
10 -7 18 -16 18 -8 0 -13 -4 -10 -9 7 -10 -16 -21 -44 -21 -10 0 -27 11 -38
25 -11 14 -25 25 -30 25 -15 0 -19 40 -9 73 12 37 -16 85 -40 66 -12 -11 -13
-15 -1 -23 17 -14 24 -88 8 -84 -7 2 -15 -3 -17 -9 -3 -7 3 -13 12 -13 9 0 13
-5 10 -10 -4 -6 -11 -8 -16 -5 -5 4 -9 0 -9 -7 0 -10 -3 -9 -9 2 -6 8 -7 18
-5 22 3 5 3 17 -1 27 -7 22 -61 45 -71 30 -3 -6 -15 -9 -27 -7 -17 2 -23 -3
-25 -24 -2 -18 1 -28 10 -28 9 0 9 -3 -2 -10 -25 -16 -32 -11 -28 19 3 23 -1
32 -19 42 -32 17 -29 26 9 32 22 3 36 0 41 -9 5 -8 13 -12 18 -8 18 10 -12 34
-40 32 -34 -2 -52 9 -44 27 3 8 0 15 -6 15 -6 0 -11 -5 -11 -11 0 -7 -10 -9
-24 -5 -14 3 -28 2 -31 -4 -3 -5 -15 -10 -25 -10 -10 0 -22 -5 -26 -12 -7 -11
35 -7 96 9 25 6 25 6 6 -15 -19 -22 -19 -22 7 -46 31 -29 33 -36 12 -36 -8 0
-15 5 -15 11 0 5 -5 7 -12 3 -7 -5 -2 -14 16 -29 21 -17 26 -28 21 -44 -8 -25
3 -28 20 -4 11 15 15 15 29 4 30 -25 19 -39 -29 -37 -52 3 -63 10 -46 30 8 10
9 16 1 21 -5 3 -10 -1 -10 -9 0 -9 -4 -16 -10 -16 -20 0 -9 -26 20 -45 16 -11
30 -24 30 -29 0 -5 8 -18 18 -29 17 -19 16 -20 -8 -7 -15 8 -25 9 -27 3 -2 -6
-19 -7 -43 -3 -34 6 -40 5 -38 -9 2 -9 8 -19 13 -23 15 -12 -13 -10 -35 2 -14
7 -23 6 -34 -6 -10 -9 -29 -14 -49 -12 -26 2 -31 0 -29 -15 2 -12 -4 -17 -23
-17 -14 0 -25 -6 -25 -12 0 -7 -7 -2 -16 10 -9 13 -26 22 -42 23 -24 0 -24 1
-7 8 11 5 27 3 37 -3 14 -8 22 -7 35 7 15 15 15 17 1 17 -13 0 -15 10 -12 55
2 41 -1 55 -10 55 -17 0 -38 -25 -29 -33 3 -4 2 -7 -4 -7 -6 0 -16 7 -23 15
-7 8 -16 12 -21 9 -11 -7 -9 -244 2 -244 5 0 9 -6 9 -14 0 -8 6 -17 13 -19 7
-4 6 -6 -5 -6 -9 -1 -19 7 -21 17 -3 9 -5 -950 -6 -2133 -1 -1987 0 -2148 15
-2120 28 52 41 117 31 156 -9 38 1 97 18 102 6 1 11 -10 13 -25 2 -16 -1 -28
-7 -28 -6 0 -11 -14 -11 -31 0 -44 14 -28 38 43 27 83 36 134 24 142 -11 6
-35 -44 -30 -64 2 -7 -3 -15 -11 -18 -11 -3 -12 1 -7 19 4 13 15 53 25 89 10
36 29 90 41 120 12 30 30 75 39 100 18 49 28 66 107 185 78 119 171 235 302
377 95 103 129 133 180 158 34 17 62 36 62 43 1 22 145 107 181 107 5 0 33 16
63 35 30 19 105 55 167 80 61 25 142 61 179 80 36 19 71 35 78 35 15 0 108 45
212 102 47 25 103 50 125 54 22 3 72 22 110 41 58 29 87 37 165 43 81 7 113
16 220 60 69 29 179 67 245 85 144 38 410 130 443 151 13 9 56 24 96 35 39 11
123 44 186 74 70 33 149 63 200 74 108 24 139 36 148 59 4 10 23 37 42 59 27
31 48 45 90 56 30 9 66 19 79 23 21 6 23 5 17 -12 -4 -10 -12 -38 -19 -61 -13
-49 1 -86 71 -192 46 -71 56 -104 17 -56 -13 17 -24 25 -25 19 0 -5 16 -27 35
-49 20 -21 33 -40 30 -43 -7 -8 36 -42 46 -36 5 3 6 -2 3 -11 -4 -10 -13 -14
-28 -9 -20 6 -20 5 2 -11 12 -9 26 -14 31 -10 5 3 20 -9 32 -27 13 -18 29 -37
36 -41 7 -4 13 -14 13 -21 0 -7 19 -26 43 -42 60 -40 115 -94 121 -118 4 -17
14 -21 52 -23 28 -1 54 -9 63 -18 15 -15 14 -15 -11 -6 -17 7 -29 7 -33 1 -9
-15 4 -30 25 -30 10 0 25 -7 34 -15 8 -8 20 -15 26 -15 14 0 40 25 40 39 0 17
27 13 34 -5 10 -25 7 -34 -8 -28 -8 3 -17 1 -20 -4 -12 -20 38 -21 59 -2 23
22 102 43 111 29 3 -5 1 -9 -5 -9 -5 0 -2 -14 6 -31 l16 -32 17 23 c12 16 27
22 53 22 l37 0 -36 24 c-19 13 -40 24 -47 24 -13 0 -97 49 -85 50 4 0 27 -9
50 -19 82 -37 113 -49 178 -71 143 -47 207 -111 203 -203 -3 -63 -56 -178
-107 -229 -25 -25 -36 -46 -36 -66 0 -32 27 -62 56 -62 60 0 121 -32 186 -97
49 -49 70 -64 80 -56 14 10 105 16 119 8 11 -8 -35 -91 -49 -88 -6 2 -9 -4 -6
-12 8 -21 18 -12 60 51 20 30 44 59 54 64 10 5 47 53 82 107 135 205 153 277
86 351 -21 23 -40 53 -44 67 -3 14 -9 25 -14 25 -14 0 -70 148 -70 187 0 45
48 82 142 107 85 23 382 145 558 228 177 85 319 199 370 299 25 47 29 111 15
227 -5 46 -4 62 5 62 22 0 74 -42 185 -150 121 -117 126 -120 275 -140 47 -7
120 -25 162 -41 43 -16 84 -29 92 -29 21 0 166 -69 202 -97 17 -12 34 -23 38
-23 3 0 25 -9 49 -19 23 -11 62 -22 86 -25 24 -4 69 -16 100 -27 41 -14 90
-21 186 -24 l130 -4 -100 9 c-55 5 -111 11 -125 13 -59 11 -85 19 -95 27 -7 5
-42 14 -80 19 -37 6 -71 15 -75 21 -4 6 -11 10 -16 9 -21 -4 -35 2 -29 11 3 6
-5 10 -19 10 -15 0 -41 14 -63 35 -21 19 -47 38 -58 41 -11 4 -23 12 -27 18
-4 6 -13 11 -20 11 -34 1 -78 18 -78 30 0 8 -7 11 -20 8 -16 -4 -20 0 -20 20
0 14 6 27 12 29 8 3 13 28 13 71 0 47 4 67 13 67 6 0 12 7 12 15 0 8 -4 15 -9
15 -10 0 -25 50 -17 58 3 2 12 -1 21 -8 13 -10 15 -9 15 8 0 12 -4 23 -9 26
-4 3 -12 36 -16 73 -15 128 -15 143 0 143 9 0 12 6 9 15 -4 9 0 15 10 15 9 0
16 5 16 11 0 6 9 9 20 6 23 -6 24 -3 10 23 -8 14 -6 21 6 28 11 6 13 11 5 16
-6 4 -11 13 -11 19 0 7 4 6 10 -3 8 -12 10 -9 10 13 0 15 -7 30 -15 33 -22 9
-18 27 5 21 24 -6 27 8 4 17 -9 4 -14 13 -10 21 7 20 -4 19 -20 -2 -12 -16
-13 -15 -14 10 0 15 -4 27 -10 27 -5 0 -10 9 -10 19 0 11 -5 23 -12 27 -8 5
-6 10 8 15 17 7 17 8 2 8 -10 1 -18 6 -18 11 0 6 -6 6 -13 -2 -8 -7 -12 -22
-9 -33 5 -18 4 -18 -12 -6 -12 10 -14 17 -6 25 15 15 12 56 -4 56 -8 0 -17 -6
-20 -12 -3 -7 -5 -4 -3 7 3 25 46 33 59 11 10 -18 38 -22 38 -6 0 5 -9 15 -20
22 -11 7 -20 17 -20 22 0 4 9 6 20 3 11 -3 20 -1 20 4 0 5 -5 9 -11 9 -5 0 -7
5 -3 11 4 8 9 8 17 0 6 -6 19 -11 29 -11 10 0 18 -5 18 -10 0 -6 -7 -10 -16
-8 -10 2 -19 -3 -21 -10 -3 -8 4 -11 19 -10 20 3 24 -2 28 -35 3 -21 9 -36 15
-35 5 2 8 13 7 26 -4 24 8 28 41 11 20 -9 20 -9 5 4 -10 8 -15 16 -12 19 3 4
-1 6 -8 5 -50 -2 -60 13 -35 54 10 17 10 23 0 26 -7 3 -13 18 -13 34 0 16 -4
29 -9 29 -5 0 -5 -15 -1 -35 5 -24 4 -35 -4 -35 -6 0 -4 -5 4 -11 12 -8 12
-10 -5 -7 -12 2 -21 12 -23 26 -3 22 -4 23 -29 7 -30 -20 -46 -10 -18 11 19
14 19 16 3 28 -11 8 -18 30 -21 62 -2 31 -4 18 -5 -38 -2 -72 -5 -88 -18 -88
-8 0 -12 5 -9 10 9 15 -4 12 -21 -4 -22 -22 -17 -29 17 -24 l31 5 -23 -18
c-13 -10 -25 -14 -27 -9 -2 6 -10 10 -17 10 -10 0 -12 7 -5 31 12 40 2 92 -16
85 -7 -3 -16 -1 -19 4 -4 6 -12 10 -18 10 -7 0 0 -10 16 -21 15 -11 27 -28 27
-36 0 -14 -2 -14 -24 0 -18 12 -26 13 -36 4 -8 -7 -11 -8 -7 -1 4 6 0 20 -8
30 -20 27 -18 34 10 34 14 0 25 4 25 10 0 5 -14 7 -32 3 -18 -3 -30 -3 -26 2
4 4 2 18 -3 32 -5 14 -6 30 -1 37 13 17 15 106 3 106 -6 0 -11 -7 -11 -15 0
-8 -7 -15 -15 -15 -22 0 -57 42 -51 63 2 10 -2 21 -10 24 -8 3 -14 13 -14 23
0 22 -22 39 -28 22 -6 -20 -71 -54 -108 -57 -30 -3 -42 2 -71 32 l-36 35 6 71
c4 40 10 119 13 177 8 131 16 154 47 144 12 -3 26 -13 30 -21 13 -21 27 -5 27
30 0 24 3 28 10 17 12 -18 13 -14 10 80 -1 45 -6 79 -14 85 -6 6 -22 24 -34
42 -16 23 -32 33 -55 35 -26 2 -31 7 -29 23 2 11 13 29 26 41 13 11 29 29 35
40 10 15 11 16 7 2 -9 -30 4 -20 18 13 l13 31 23 -64 c13 -34 30 -74 37 -88 7
-14 13 -33 13 -44 0 -27 42 -146 52 -146 11 0 15 14 21 68 5 39 4 42 -15 36
-18 -5 -19 -2 -16 43 3 38 7 48 21 47 15 -2 17 11 17 107 0 99 -7 137 -36 187
-4 7 -63 -28 -71 -42 -18 -32 -103 -116 -116 -116 -8 0 -17 -10 -21 -22 -9
-36 -24 -10 -32 53 l-6 57 44 26 c27 16 52 41 65 66 l22 40 -22 -3 c-24 -2
-24 -2 -10 93 7 47 11 55 28 52 14 -2 16 0 8 6 -14 9 -10 110 6 140 5 9 12 55
16 102 4 47 14 114 22 150 18 78 27 334 12 361 -5 10 -6 19 -1 19 11 0 42 65
42 88 0 10 -7 27 -15 38 -28 37 -13 84 27 84 15 0 17 5 12 25 -5 20 -2 25 12
25 17 0 17 2 -2 18 -12 9 -24 33 -27 52 -3 19 -10 52 -15 73 -11 42 1 60 22
31 7 -9 18 -14 24 -10 7 4 1 17 -18 34 -54 52 -39 54 454 52 1553 -6 1595 -6
1701 13 55 10 106 22 115 26 8 5 31 11 50 15 19 3 53 15 75 26 22 10 68 29
103 41 35 12 62 27 62 35 0 8 10 14 25 14 13 0 28 6 32 13 8 12 59 40 76 41 4
1 11 6 15 11 4 6 21 17 37 25 17 9 34 26 40 38 11 24 31 31 21 7 -11 -29 11
-15 29 19 12 21 34 41 59 53 25 11 52 34 69 61 17 25 36 42 48 42 12 0 23 10
29 26 6 14 19 28 30 31 11 3 18 9 15 13 -3 4 2 13 10 20 8 7 15 23 15 37 0 13
5 23 13 22 24 -3 38 1 32 10 -3 5 -1 12 4 15 4 3 11 20 15 37 5 25 9 29 19 20
19 -15 50 18 37 39 -5 8 -10 26 -10 39 0 20 4 23 30 19 31 -5 41 6 15 16 -8 3
-15 12 -15 21 0 18 16 20 23 3 3 -7 6 -1 6 13 1 14 9 33 19 42 18 16 23 50 10
63 -4 3 -4 13 -1 21 5 12 7 12 14 1 6 -9 9 -5 9 14 0 22 -3 25 -22 20 l-22 -5
21 36 c13 22 17 34 9 31 -7 -3 -19 -17 -26 -32 -29 -64 -203 -266 -321 -371
-168 -152 -370 -268 -580 -334 -254 -79 -269 -80 -1288 -67 -471 6 -901 13
-956 15 -55 2 -175 4 -267 4 l-166 1 -45 63 c-60 84 -95 116 -107 98 -6 -11
-14 -9 -38 10 -17 13 -31 29 -31 35 -2 22 -42 55 -62 49 -15 -5 -19 -2 -19 15
0 12 -3 19 -7 17 -12 -7 -33 18 -33 41 0 4 -4 2 -8 -5 -5 -8 -25 5 -63 40 -60
56 -138 111 -209 147 -25 13 -66 44 -91 70 -65 66 -156 133 -173 127 -8 -3
-16 2 -19 14 -3 11 -11 19 -19 18 -13 -2 -37 5 -75 24 -13 6 -26 7 -30 4 -3
-4 -1 -7 5 -7 6 0 24 -14 41 -31 27 -27 28 -29 8 -23 -12 4 -29 7 -37 6 -32
-2 -106 22 -136 44 -17 12 -57 30 -89 40 -69 19 -123 47 -147 75 -16 18 -54
17 -42 -2 3 -5 1 -9 -4 -9 -6 0 -13 7 -16 16 -4 10 -12 14 -22 10 -9 -3 -25 1
-37 9 -23 16 -112 21 -103 6z m-674 -195 c0 -3 -4 -8 -10 -11 -5 -3 -10 -1
-10 4 0 6 5 11 10 11 6 0 10 -2 10 -4z m5787 -158 c-3 -8 -6 -5 -6 6 -1 11 2
17 5 13 3 -3 4 -12 1 -19z m-2 -28 c-3 -5 -11 -10 -16 -10 -6 0 -7 5 -4 10 3
6 11 10 16 10 6 0 7 -4 4 -10z m-6155 -98 c0 -13 -68 -29 -84 -20 -8 5 -17 4
-21 -2 -11 -18 -26 -11 -16 8 7 13 23 17 65 19 31 1 56 -1 56 -5z m1939 -217
c0 -5 -6 1 -14 15 -8 14 -14 34 -14 45 0 13 5 8 14 -15 7 -19 14 -39 14 -45z
m461 13 c0 -16 -3 -19 -11 -11 -6 6 -8 16 -5 22 11 17 16 13 16 -11z m110 -94
c0 -8 -4 -12 -10 -9 -5 3 -10 10 -10 16 0 5 5 9 10 9 6 0 10 -7 10 -16z m400
-434 c-19 -13 -30 -13 -30 0 0 6 10 10 23 10 18 0 19 -2 7 -10z m-1160 -99 c8
-13 121 -18 140 -6 29 18 240 -48 240 -75 0 -8 62 -40 77 -41 5 0 11 -6 15
-14 5 -7 34 -28 65 -45 72 -41 123 -93 123 -125 0 -20 5 -25 24 -25 15 0 26
-7 29 -20 3 -11 12 -20 21 -20 9 0 16 -1 16 -3 0 -6 -39 -79 -49 -91 -6 -8
-13 -36 -15 -64 -3 -45 0 -55 25 -83 16 -18 38 -58 49 -88 11 -31 24 -63 27
-71 9 -21 14 -58 15 -102 0 -21 5 -36 10 -35 6 1 16 -25 24 -58 16 -74 16 -77
5 -71 -4 3 -6 -5 -4 -19 3 -15 10 -22 19 -18 11 4 14 -6 14 -45 0 -28 5 -54
10 -57 6 -4 10 -21 9 -38 -1 -39 16 -227 30 -322 10 -72 24 -294 15 -240 -3
17 -10 34 -15 39 -5 6 -9 41 -9 78 0 43 -4 68 -11 68 -7 0 -9 9 -6 22 7 24
-20 91 -33 83 -4 -3 -10 8 -13 23 -3 15 -9 41 -13 57 -6 26 -5 28 8 17 12 -10
18 -10 23 -1 4 6 3 14 -3 18 -6 4 -14 27 -18 51 -9 59 -23 85 -36 72 -8 -8 -6
-21 6 -45 9 -19 16 -43 16 -53 0 -16 -1 -16 -19 0 -15 14 -20 14 -24 3 -3 -8
-1 -20 4 -28 5 -8 9 -24 9 -36 0 -16 4 -21 15 -17 19 8 19 0 1 -19 -19 -18
-25 -89 -8 -94 8 -3 12 6 12 27 0 21 4 30 13 27 6 -2 11 -12 11 -21 -1 -9 2
-16 8 -16 5 0 2 -10 -6 -21 -8 -12 -12 -28 -9 -35 4 -10 0 -12 -12 -8 -15 6
-16 4 -7 -13 8 -15 8 -23 -1 -33 -9 -10 -9 -14 1 -17 18 -7 15 -60 -5 -72 -15
-8 -16 -13 -6 -29 17 -29 -1 -88 -34 -109 -20 -13 -28 -14 -31 -5 -2 7 -13 10
-26 6 -18 -4 -25 -1 -29 17 -5 18 -9 20 -21 10 -8 -7 -12 -19 -9 -28 5 -12 1
-14 -17 -8 -15 5 -25 2 -31 -6 -13 -21 -11 -29 5 -23 17 6 56 -12 56 -27 0 -5
-11 -7 -26 -3 -19 5 -25 4 -20 -5 5 -7 0 -11 -13 -11 -11 0 -23 5 -26 10 -4 6
-15 8 -26 5 -11 -4 -26 0 -35 9 -9 9 -32 16 -54 16 -21 0 -42 5 -45 10 -11 17
-87 50 -116 50 -21 0 -45 16 -92 63 -83 81 -103 97 -125 97 -10 0 -33 18 -51
40 -17 22 -37 40 -42 40 -6 0 -29 20 -52 44 -51 53 -126 101 -138 89 -5 -5 13
-31 45 -61 30 -29 69 -80 86 -114 27 -51 31 -69 28 -110 -4 -38 -1 -51 11 -58
9 -5 12 -10 8 -10 -5 0 8 -20 27 -44 20 -23 36 -50 36 -58 0 -7 4 -18 9 -24 4
-5 11 -24 14 -41 6 -31 5 -33 -23 -33 -20 0 -31 6 -35 20 -4 12 -15 20 -29 20
-13 0 -29 7 -36 15 -7 8 -20 15 -30 15 -9 0 -24 8 -33 18 -9 10 -32 24 -51 32
-30 11 -33 15 -23 32 7 10 21 18 33 18 16 0 23 8 29 33 4 17 7 35 6 40 0 4 2
7 6 7 5 0 9 26 11 58 l2 57 -44 -3 c-35 -3 -49 1 -65 17 -12 12 -29 21 -38 21
-39 0 -90 21 -122 51 -28 25 -40 30 -64 25 -16 -3 -40 -6 -53 -6 -13 0 -24 -4
-24 -10 0 -5 7 -10 15 -10 8 0 15 -5 15 -11 0 -7 -7 -8 -17 -4 -10 4 -36 11
-58 17 -22 5 -46 16 -53 26 -7 9 -16 17 -20 17 -7 0 -26 15 -85 66 -26 22 -28
28 -18 48 10 17 9 28 -4 53 -8 17 -11 34 -7 37 10 7 24 81 15 81 -3 0 -12 -8
-19 -17 -7 -10 -14 -13 -14 -7 0 6 10 22 23 36 26 28 57 88 57 111 0 9 6 17
13 20 9 3 9 8 1 18 -5 8 -10 19 -9 24 3 35 60 75 107 75 45 -1 114 -33 128
-62 42 -79 66 -105 110 -118 25 -8 56 -26 69 -41 19 -21 30 -26 57 -22 29 4
33 2 28 -12 -6 -14 -1 -16 31 -14 31 3 41 -1 53 -20 16 -23 15 -23 -6 -17 -13
4 -22 3 -22 -3 0 -17 127 -70 192 -80 108 -17 253 -18 244 -2 -3 5 1 11 9 15
20 7 19 23 -2 30 -15 4 -15 5 2 4 11 0 36 1 55 2 l35 2 -30 13 c-16 7 -68 15
-115 18 -89 6 -140 19 -140 37 0 13 14 13 61 -2 29 -8 46 -8 63 0 13 6 27 8
31 4 7 -7 60 -12 124 -11 18 0 56 -8 83 -17 55 -18 148 -12 148 11 0 7 7 18
15 25 12 10 15 10 15 -3 0 -24 19 -31 27 -10 13 36 23 43 44 30 17 -10 23 -9
35 7 8 11 14 26 14 33 0 17 -27 17 -33 1 -3 -10 -7 -10 -18 -2 -28 23 -90 54
-98 49 -5 -2 -8 16 -6 42 2 58 32 88 71 73 32 -13 31 -13 30 11 -1 12 5 24 12
26 6 3 12 -2 12 -11 0 -9 4 -16 9 -16 18 0 6 65 -17 89 -14 15 -20 32 -17 45
3 12 2 15 -1 9 -8 -19 -21 -16 -27 7 -6 23 -37 28 -37 6 0 -23 -27 -27 -33 -4
-4 12 -10 17 -17 13 -9 -5 -9 -10 -1 -14 6 -4 9 -20 6 -36 -2 -17 -2 -24 1
-18 7 15 49 -9 58 -34 11 -28 -6 -35 -31 -11 -16 14 -27 19 -30 11 -2 -6 -30
14 -62 45 -70 70 -156 135 -196 150 -16 6 -81 13 -144 16 -62 4 -117 9 -122
12 -5 3 -9 0 -9 -5 0 -6 -8 -10 -17 -9 -10 1 -40 0 -68 -1 -38 -1 -46 -4 -35
-12 11 -8 9 -8 -10 -2 -14 4 -43 7 -65 6 -149 -5 -195 -9 -195 -15 0 -5 -10
-8 -22 -8 -12 0 -36 -5 -54 -12 -25 -9 -54 -9 -116 -1 -70 8 -85 8 -95 -4 -9
-11 -22 -13 -52 -8 -23 4 -41 11 -41 16 0 5 -8 8 -17 7 -46 -3 -73 3 -73 17 0
15 -25 21 -33 8 -2 -5 -2 -2 0 6 2 9 -3 12 -15 9 -11 -3 -27 -1 -36 4 -10 5
-16 5 -16 0 0 -6 -27 -8 -62 -6 -35 2 -78 4 -95 4 -34 0 -46 16 -16 22 9 2
-36 4 -100 4 -63 1 -120 5 -127 9 -6 4 -41 7 -78 6 l-68 0 1 31 c0 24 6 36 23
44 13 6 36 23 51 38 15 14 37 26 49 26 12 0 21 5 19 12 -1 7 5 13 13 14 32 3
34 6 10 15 -24 10 -24 11 -6 25 11 8 26 14 33 14 13 0 18 24 14 67 -2 25 29
61 47 55 18 -6 15 45 -4 52 -20 8 -9 26 16 26 11 0 24 9 30 20 20 36 104 70
203 81 56 6 98 16 107 25 13 13 10 14 -30 10 -25 -2 -62 -7 -82 -10 -96 -15
-108 -16 -108 -8 0 11 54 27 143 44 52 9 65 15 54 23 -10 7 -1 10 37 11 28 1
72 9 99 18 26 9 59 16 75 16 202 -5 358 7 380 30 24 24 30 25 138 24 66 -1 98
-5 104 -13z m-1073 -167 c-3 -3 -12 -4 -19 -1 -8 3 -5 6 6 6 11 1 17 -2 13 -5z
m-380 -500 c-3 -3 -12 -4 -19 -1 -8 3 -5 6 6 6 11 1 17 -2 13 -5z m-1231 -134
c8 0 14 -9 14 -20 0 -15 -6 -19 -30 -17 -24 2 -30 7 -30 26 0 17 4 22 16 17 9
-3 22 -6 30 -6z m46 -130 c4 0 8 10 8 22 0 16 3 19 11 11 13 -13 -9 -53 -28
-53 -7 0 -13 -4 -13 -10 0 -5 -4 -10 -10 -10 -16 0 -23 49 -9 66 12 15 14 14
23 -5 5 -12 13 -21 18 -21z m2919 -3 c14 -10 32 -15 40 -13 8 3 23 -1 33 -9
15 -11 17 -17 7 -29 -6 -8 -21 -12 -32 -9 -14 4 -18 1 -14 -9 7 -17 -31 -33
-40 -18 -3 5 -31 8 -63 8 -31 -1 -65 2 -74 7 -10 4 -25 5 -33 1 -8 -3 -15 -1
-15 4 0 6 12 10 28 11 27 0 27 1 5 11 -30 14 -29 19 7 44 36 25 113 26 151 1z
m-2861 -17 c0 -5 -4 -10 -10 -10 -5 0 -10 5 -10 10 0 6 5 10 10 10 6 0 10 -4
10 -10z m-495 -40 c3 -5 -3 -10 -15 -10 -12 0 -18 5 -15 10 3 6 10 10 15 10 5
0 12 -4 15 -10z m3735 0 c0 -5 -4 -10 -9 -10 -6 0 -13 5 -16 10 -3 6 1 10 9
10 9 0 16 -4 16 -10z m-3642 -45 c-13 -28 -19 -30 -36 -13 -18 18 -15 26 16
31 15 2 28 5 29 6 2 0 -3 -10 -9 -24z m3345 8 c-7 -2 -19 -2 -25 0 -7 3 -2 5
12 5 14 0 19 -2 13 -5z m-3164 -47 c25 -40 26 -46 6 -46 -10 0 -15 -10 -15
-27 l0 -27 -16 23 c-16 22 -16 25 5 40 l21 16 -20 18 c-21 18 -27 37 -11 37 5
0 19 -15 30 -34z m-69 4 c0 -5 -2 -10 -4 -10 -3 0 -8 5 -11 10 -3 6 -1 10 4
10 6 0 11 -4 11 -10z m-87 -21 c6 -21 -19 -68 -35 -69 -15 0 -8 28 8 34 11 4
14 13 10 31 -4 14 -2 25 3 25 5 0 11 -10 14 -21z m57 -14 c0 -5 -5 -3 -10 5
-5 8 -10 20 -10 25 0 6 5 3 10 -5 5 -8 10 -19 10 -25z m37 -31 c-3 -3 -12 -4
-19 -1 -8 3 -5 6 6 6 11 1 17 -2 13 -5z m127 -40 c3 -8 1 -14 -4 -14 -6 0 -10
5 -10 10 0 6 -9 10 -19 10 -21 0 -35 13 -25 23 9 8 52 -14 58 -29z m-122 -16
c-12 -12 -35 -1 -27 12 3 5 13 6 21 3 10 -4 12 -9 6 -15z m619 -51 c-8 -8 -11
-7 -11 4 0 20 13 34 18 19 3 -7 -1 -17 -7 -23z m-761 19 c0 -3 -4 -8 -10 -11
-5 -3 -10 -1 -10 4 0 6 5 11 10 11 6 0 10 -2 10 -4z m420 -11 l25 -14 -27 1
c-15 1 -30 8 -32 15 -7 17 3 16 34 -2z m1350 5 c-19 -13 -30 -13 -30 0 0 6 10
10 23 10 18 0 19 -2 7 -10z m1344 -10 c7 -7 -8 -10 -41 -10 -64 0 -114 10
-107 21 6 11 136 1 148 -11z m-1133 -20 c10 0 19 -4 19 -9 0 -11 -110 -19
-116 -9 -6 9 48 27 64 22 8 -2 22 -4 33 -4z m-1201 -15 c0 -8 -4 -15 -10 -15
-5 0 -7 7 -4 15 4 8 8 15 10 15 2 0 4 -7 4 -15z m-700 1 c0 -3 -4 -8 -10 -11
-5 -3 -10 -1 -10 4 0 6 5 11 10 11 6 0 10 -2 10 -4z m250 -6 c0 -5 -7 -10 -15
-10 -8 0 -15 5 -15 10 0 6 7 10 15 10 8 0 15 -4 15 -10z m1640 -36 c0 -8 5
-12 10 -9 6 3 10 1 10 -5 0 -6 -7 -13 -15 -16 -24 -9 -18 -22 12 -26 25 -3 26
-4 10 -20 -9 -9 -17 -23 -17 -32 0 -8 -4 -17 -9 -20 -5 -3 -7 -14 -4 -25 3
-12 -7 -31 -29 -53 -61 -63 -98 -110 -98 -124 0 -8 -9 -14 -19 -14 -11 0 -22
-9 -26 -19 -3 -11 -12 -22 -20 -25 -8 -3 -15 -13 -15 -22 0 -13 -3 -14 -15 -4
-18 15 -20 -1 -3 -18 9 -9 4 -12 -24 -12 -20 0 -48 -4 -62 -10 -14 -5 -26 -6
-26 -2 0 4 -19 8 -43 9 -23 1 -36 -1 -29 -4 29 -12 8 -19 -44 -15 -42 3 -62
11 -80 29 -13 13 -24 28 -24 33 0 6 -7 10 -15 10 -9 0 -18 7 -22 16 -5 13 -7
13 -14 2 -6 -9 -9 -7 -9 8 0 12 -6 27 -14 34 -8 6 -12 18 -9 26 3 8 -6 26 -20
39 -27 28 -43 83 -27 99 6 6 5 15 -5 26 -12 13 -11 19 7 48 13 21 28 32 43 32
13 0 25 5 27 11 2 7 42 7 133 -1 148 -13 324 -5 352 16 10 7 25 14 33 14 8 0
26 9 40 20 30 24 60 26 60 4z m-1740 -24 c0 -5 -7 -7 -15 -4 -8 4 -12 10 -9
15 6 11 24 2 24 -11z m285 0 c3 -5 1 -10 -4 -10 -6 0 -11 5 -11 10 0 6 2 10 4
10 3 0 8 -4 11 -10z m-220 -58 c-12 -3 -13 -7 -5 -17 12 -15 6 -35 -11 -35 -6
0 -8 9 -4 19 3 11 -1 25 -10 34 -19 20 1 29 28 13 15 -10 16 -11 2 -14z m221
-19 c-11 -11 -19 6 -11 24 8 17 8 17 12 0 3 -10 2 -21 -1 -24z m-296 23 c0 -3
-4 -8 -10 -11 -5 -3 -10 -1 -10 4 0 6 5 11 10 11 6 0 10 -2 10 -4z m170 0 c0
-3 -4 -8 -10 -11 -5 -3 -10 -1 -10 4 0 6 5 11 10 11 6 0 10 -2 10 -4z m46 -20
c9 -20 9 -26 -2 -30 -8 -3 -14 -20 -14 -39 0 -19 -7 -40 -15 -47 -13 -11 -14
-10 -9 4 3 9 1 16 -6 16 -7 0 -5 6 5 16 9 9 13 24 10 34 -6 20 3 70 14 70 3 0
11 -11 17 -24z m-334 -36 c2 -15 9 -24 17 -22 15 3 31 -15 31 -35 0 -21 -31
-15 -37 7 -3 12 -14 20 -27 20 -16 0 -18 2 -7 9 9 6 12 19 9 36 -3 14 -2 23 2
18 5 -4 10 -19 12 -33z m236 13 c-2 -14 -10 -28 -18 -30 -12 -4 -12 -3 -1 5 9
6 10 12 3 16 -13 8 -5 36 10 36 5 0 8 -12 6 -27z m52 13 c0 -3 -4 -8 -10 -11
-5 -3 -10 -1 -10 4 0 6 5 11 10 11 6 0 10 -2 10 -4z m77 -31 c0 -8 -4 -15 -9
-15 -10 0 -11 14 -1 23 9 10 10 9 10 -8z m-17 -30 c11 -13 10 -14 -4 -9 -9 3
-16 10 -16 15 0 13 6 11 20 -6z m1715 5 c3 -5 1 -10 -4 -10 -6 0 -11 5 -11 10
0 6 2 10 4 10 3 0 8 -4 11 -10z m-21 -18 c2 -4 7 -24 11 -44 6 -34 4 -38 -23
-52 -20 -10 -33 -12 -37 -6 -3 6 -15 10 -26 10 -14 0 -18 5 -15 23 3 12 5 25
5 30 1 8 61 47 73 47 4 0 9 -3 12 -8z m-1634 -12 c0 -5 -5 -10 -11 -10 -5 0
-7 5 -4 10 3 6 8 10 11 10 2 0 4 -4 4 -10z m90 7 c0 -9 -40 -49 -41 -41 0 5
-2 17 -4 27 -2 12 3 17 21 17 13 0 24 -2 24 -3z m-2822 -47 c4 -12 3 -13 -10
-3 -8 7 -18 10 -21 6 -4 -3 -7 -1 -7 6 0 17 32 10 38 -9z m2372 11 c0 -6 -4
-13 -10 -16 -5 -3 -10 1 -10 9 0 9 5 16 10 16 6 0 10 -4 10 -9z m284 -16 c-4
-8 -10 -15 -15 -15 -5 0 -9 7 -9 15 0 8 7 15 15 15 9 0 12 -6 9 -15z m-2689
-15 c3 -6 -1 -7 -9 -4 -18 7 -21 14 -7 14 6 0 13 -4 16 -10z m2800 -10 c3 -5
-1 -10 -10 -10 -9 0 -13 5 -10 10 3 6 8 10 10 10 2 0 7 -4 10 -10z m-58 -6
c-3 -3 -12 -4 -19 -1 -8 3 -5 6 6 6 11 1 17 -2 13 -5z m-2704 -24 c3 -11 1
-23 -4 -26 -5 -3 -9 2 -9 10 0 9 -4 16 -10 16 -5 0 -10 5 -10 10 0 19 28 10
33 -10z m2417 0 c0 -5 -7 -10 -16 -10 -8 0 -12 5 -9 10 3 6 10 10 16 10 5 0 9
-4 9 -10z m-2315 -11 c-4 -6 1 -16 11 -24 34 -24 -9 -29 -47 -5 -34 21 -34 21
-5 14 19 -5 27 -3 22 4 -3 6 0 13 6 15 19 8 20 8 13 -4z m2056 -9 c10 0 19 -4
19 -8 0 -12 -43 -9 -52 3 -4 5 -4 14 -1 19 4 6 8 5 11 -2 2 -7 12 -12 23 -12z
m189 -6 c0 -22 -2 -25 -15 -14 -8 7 -15 19 -15 26 0 8 7 14 15 14 10 0 15 -10
15 -26z m-321 -17 c11 -17 11 -19 0 -9 -7 6 -21 12 -31 12 -18 0 -24 11 -12
23 10 9 28 -2 43 -26z m-2049 -12 c0 -16 -6 -25 -15 -25 -8 0 -15 7 -15 15 0
8 5 15 11 15 5 0 7 5 4 10 -3 6 -1 10 4 10 6 0 11 -11 11 -25z m206 10 c20
-19 5 -19 -20 0 -11 9 -14 15 -7 15 7 0 19 -7 27 -15z m1741 -21 c-9 -9 -27 6
-27 22 0 13 2 13 16 -1 9 -9 14 -18 11 -21z m43 15 c0 -18 -2 -19 -15 -5 -8 8
-15 17 -15 20 0 3 7 6 15 6 9 0 15 -9 15 -21z m874 6 c-4 -8 -11 -12 -16 -9
-6 4 -5 10 3 15 19 12 19 11 13 -6z m-2794 -9 c0 -3 -4 -8 -10 -11 -5 -3 -10
-1 -10 4 0 6 5 11 10 11 6 0 10 -2 10 -4z m2332 -5 c-8 -4 -13 -12 -13 -17 1
-13 -22 -11 -26 3 -2 6 4 13 14 16 30 8 39 7 25 -2z m-2372 -16 c-7 -9 -15
-13 -17 -11 -7 7 7 26 19 26 6 0 6 -6 -2 -15z m153 -4 c4 -1 14 -1 22 -1 8 0
15 -8 15 -17 0 -12 3 -14 8 -7 4 6 23 15 42 18 l35 7 -22 -20 c-29 -24 -30
-35 -2 -20 20 10 21 9 15 -15 -4 -18 -3 -25 6 -24 6 2 14 -10 18 -27 4 -24 10
-29 28 -27 13 2 29 -2 37 -8 10 -8 15 -8 20 0 9 14 8 14 -34 26 -48 13 -48 27
0 42 47 15 59 10 42 -18 -10 -14 -9 -21 2 -30 8 -6 19 -8 26 -4 7 4 10 2 7 -7
-3 -8 -13 -13 -23 -11 -15 3 -17 -1 -12 -27 4 -19 2 -31 -4 -31 -14 0 -39 26
-39 39 0 6 -4 11 -10 11 -5 0 -10 -4 -10 -10 0 -5 -8 -10 -18 -10 -26 0 -34
-11 -21 -27 9 -9 8 -13 0 -13 -21 0 -25 32 -6 46 16 12 17 14 2 20 -10 3 -17
17 -17 29 0 34 -10 55 -26 55 -8 0 -14 -7 -14 -16 0 -8 -4 -12 -10 -9 -5 3
-10 3 -10 -2 -1 -21 -19 -36 -32 -26 -7 6 -21 12 -32 14 -13 3 -19 14 -21 36
-2 30 -1 32 26 26 18 -3 29 -1 29 6 0 6 -6 11 -14 11 -8 0 -20 2 -28 5 -7 3
-19 -4 -26 -16 -11 -18 -12 -23 -1 -30 8 -4 10 -11 6 -15 -4 -4 -14 1 -21 12
-15 19 -15 19 -30 -1 -15 -19 -15 -19 -16 8 0 34 38 76 51 56 6 -11 9 -10 14
4 5 12 12 14 23 8 10 -5 20 -9 25 -10z m1828 -4 c-10 -9 -11 -8 -5 6 3 10 9
15 12 12 3 -3 0 -11 -7 -18z m432 -20 c-7 -11 -23 12 -23 32 0 11 4 9 14 -4 8
-11 12 -24 9 -28z m437 27 c0 -8 -5 -12 -10 -9 -6 4 -8 11 -5 16 9 14 15 11
15 -7z m-2945 -4 c3 -5 1 -10 -4 -10 -6 0 -11 5 -11 10 0 6 2 10 4 10 3 0 8
-4 11 -10z m2480 -20 c3 -5 -1 -10 -9 -10 -9 0 -16 5 -16 10 0 6 4 10 9 10 6
0 13 -4 16 -10z m-2370 -10 c3 -5 -1 -10 -9 -10 -9 0 -16 5 -16 10 0 6 4 10 9
10 6 0 13 -4 16 -10z m-495 -10 c8 -5 11 -12 8 -15 -4 -4 -17 0 -30 9 -24 17
-5 23 22 6z m394 -6 c4 -9 13 -14 21 -10 8 3 15 4 15 2 0 -3 3 -13 6 -23 6
-15 4 -16 -7 -5 -7 6 -17 12 -22 12 -5 0 2 -9 17 -21 29 -23 35 -59 10 -59
-13 0 -14 3 -4 15 10 12 9 16 -6 22 -28 10 -54 41 -54 63 0 24 15 26 24 4z
m426 1 c-7 -9 -15 -13 -17 -11 -7 7 7 26 19 26 6 0 6 -6 -2 -15z m1526 -2 c15
-21 18 -53 5 -53 -8 0 -41 54 -41 67 0 10 25 0 36 -14z m-1881 -3 c3 -6 -1 -7
-9 -4 -18 7 -21 14 -7 14 6 0 13 -4 16 -10z m2475 -4 c0 -3 -4 -8 -10 -11 -5
-3 -10 -1 -10 4 0 6 5 11 10 11 6 0 10 -2 10 -4z m-2580 -36 c0 -16 -21 -22
-34 -11 -7 6 -16 8 -19 4 -4 -3 -7 -1 -7 5 0 12 28 21 48 14 6 -2 12 -8 12
-12z m3020 -15 c0 -5 -5 -3 -10 5 -5 8 -10 20 -10 25 0 6 5 3 10 -5 5 -8 10
-19 10 -25z m-2885 5 c3 -5 1 -10 -4 -10 -6 0 -11 5 -11 10 0 6 2 10 4 10 3 0
8 -4 11 -10z m485 0 c0 -5 -4 -10 -9 -10 -6 0 -13 5 -16 10 -3 6 1 10 9 10 9
0 16 -4 16 -10z m-769 -9 c-9 -6 -10 -11 -2 -15 17 -11 13 -29 -4 -22 -9 3
-15 0 -15 -9 0 -8 6 -15 14 -15 8 0 18 -5 22 -11 10 -16 -46 -2 -67 17 -9 8
-19 11 -22 7 -4 -3 -7 1 -7 10 0 22 19 32 26 13 3 -9 10 -16 15 -16 4 0 6 7 2
16 -6 17 12 34 37 34 12 0 12 -2 1 -9z m68 -12 c-16 -10 -23 -4 -14 10 3 6 11
8 17 5 6 -4 5 -9 -3 -15z m661 6 c0 -8 -7 -15 -15 -15 -16 0 -20 12 -8 23 11
12 23 8 23 -8z m-555 -5 c-3 -5 -10 -10 -16 -10 -5 0 -9 5 -9 10 0 6 7 10 16
10 8 0 12 -4 9 -10z m205 -5 c0 -8 -7 -15 -15 -15 -9 0 -12 6 -9 15 4 8 10 15
15 15 5 0 9 -7 9 -15z m-252 -14 c3 -9 0 -11 -8 -6 -10 6 -12 2 -8 -13 4 -15
2 -22 -9 -22 -8 0 -12 4 -9 9 4 5 1 11 -6 13 -18 6 -1 40 19 36 9 -2 18 -9 21
-17z m392 10 c0 -6 -5 -13 -11 -17 -8 -5 -8 -9 1 -14 14 -9 -16 -50 -37 -50
-18 0 -16 19 2 26 26 10 16 29 -15 30 -30 1 -39 -9 -20 -21 15 -9 12 -22 -6
-29 -12 -4 -15 -2 -10 9 6 18 2 19 -25 4 -20 -10 -20 -11 -2 -25 11 -8 14 -17
8 -21 -5 -5 -11 -18 -12 -30 -2 -17 2 -23 17 -23 11 0 20 -5 20 -11 0 -6 -9
-8 -22 -3 -29 8 -28 7 -33 34 -6 30 -21 45 -29 31 -4 -6 -2 -11 3 -11 6 0 11
-7 11 -15 0 -23 -18 -18 -26 8 -5 12 -7 25 -6 30 1 4 -7 7 -18 7 -11 0 -20 -7
-20 -16 0 -8 -5 -12 -10 -9 -16 10 8 45 26 38 8 -3 25 4 38 16 14 13 29 19 39
15 11 -4 17 -1 17 8 0 18 43 45 48 29 2 -7 10 -6 25 4 24 17 47 20 47 6z
m-333 -38 c-3 -3 -10 -2 -16 2 -7 4 -7 10 2 20 10 11 13 11 15 -2 2 -8 1 -17
-1 -20z m153 -9 c0 -9 -12 -14 -35 -14 -24 0 -35 5 -35 15 0 9 10 15 26 15 17
0 23 4 18 13 -5 8 -2 8 9 -2 9 -7 17 -20 17 -27z m375 26 c3 -5 1 -10 -4 -10
-6 0 -11 5 -11 10 0 6 2 10 4 10 3 0 8 -4 11 -10z m1263 -29 c-7 -11 -18 -21
-25 -21 -7 0 -13 -4 -13 -10 0 -5 -10 -10 -22 -10 -20 0 -20 1 -3 20 10 11 26
22 36 25 11 4 19 14 19 23 0 11 3 13 11 5 8 -8 7 -17 -3 -32z m-2138 3 c0 -8
-6 -14 -12 -14 -21 0 -41 17 -34 28 8 14 46 3 46 -14z m55 16 c3 -5 1 -10 -4
-10 -6 0 -11 5 -11 10 0 6 2 10 4 10 3 0 8 -4 11 -10z m343 -12 c17 -17 15
-27 -6 -25 -10 0 -19 9 -19 19 -2 21 8 23 25 6z m1303 -11 c-17 -17 -71 -19
-71 -3 0 8 12 16 28 18 37 5 56 -2 43 -15z m43 8 c3 -9 0 -15 -8 -15 -7 0 -13
7 -13 15 0 8 4 15 8 15 4 0 9 -7 13 -15z m-1710 -10 c3 -9 0 -15 -9 -15 -9 0
-12 6 -9 15 4 8 7 15 9 15 2 0 5 -7 9 -15z m780 -52 c-31 -28 -36 -36 -24 -43
27 -17 -18 -41 -67 -37 -24 3 -43 1 -43 -4 0 -5 -4 -9 -10 -9 -18 0 -10 17 14
28 14 6 26 22 29 41 4 20 13 31 23 31 14 0 14 3 4 15 -10 12 -10 19 -2 27 9 9
17 7 32 -10 28 -29 44 -28 60 6 12 23 14 24 18 8 3 -12 -9 -30 -34 -53z m-870
41 c4 -9 4 -19 1 -22 -6 -6 -35 18 -35 29 0 16 28 10 34 -7z m156 6 c0 -5 -4
-10 -10 -10 -5 0 -10 5 -10 10 0 6 5 10 10 10 6 0 10 -4 10 -10z m210 4 c0 -4
-10 -15 -22 -25 -25 -22 -23 -25 16 -35 22 -5 27 -4 21 6 -5 9 -4 11 3 6 7 -4
12 -16 12 -27 0 -10 5 -19 11 -19 6 0 8 8 5 18 -4 10 1 27 10 38 13 16 15 16
10 2 -3 -10 -2 -17 2 -17 21 3 21 -4 3 -30 -22 -31 -28 -61 -11 -61 6 0 10 -9
10 -20 0 -24 -18 -26 -46 -6 -16 12 -17 18 -7 35 10 15 9 20 -2 25 -8 3 -15
13 -15 21 0 9 -4 14 -10 10 -16 -10 -49 31 -43 54 3 11 9 19 13 16 5 -3 11 -1
15 5 7 11 25 14 25 4z m580 -9 c0 -9 -6 -12 -15 -9 -8 4 -12 10 -9 15 8 14 24
10 24 -6z m30 11 c0 -3 -4 -8 -10 -11 -5 -3 -10 -1 -10 4 0 6 5 11 10 11 6 0
10 -2 10 -4z m1043 -13 c-3 -10 -11 -24 -16 -31 -16 -20 -28 7 -14 30 15 23
39 24 30 1z m1387 7 c0 -5 -4 -10 -10 -10 -5 0 -10 5 -10 10 0 6 5 10 10 10 6
0 10 -4 10 -10z m-3200 -8 c0 -16 -42 -34 -53 -23 -8 8 -6 11 6 11 9 0 17 5
17 10 0 6 7 10 15 10 8 0 15 -3 15 -8z m198 -10 c2 -7 -2 -10 -12 -6 -9 3 -16
11 -16 16 0 13 23 5 28 -10z m702 -2 c0 -11 5 -19 12 -17 18 3 20 -26 3 -48
-15 -20 -16 -20 -13 1 2 13 -7 29 -21 41 -14 11 -21 25 -17 31 12 19 36 14 36
-8z m-360 -10 c0 -5 -4 -10 -10 -10 -5 0 -10 5 -10 10 0 6 5 10 10 10 6 0 10
-4 10 -10z m235 0 c3 -5 1 -10 -4 -10 -6 0 -11 5 -11 10 0 6 2 10 4 10 3 0 8
-4 11 -10z m73 -16 c0 -17 -3 -22 -8 -13 -5 6 -6 18 -3 26 8 19 11 16 11 -13z
m732 11 c7 -9 21 -13 31 -10 11 4 26 -4 43 -22 28 -30 31 -39 16 -48 -6 -4 -7
1 -3 11 4 12 3 15 -5 10 -7 -4 -12 -1 -12 8 0 11 -10 16 -32 16 -35 1 -68 19
-68 39 0 16 15 14 30 -4z m3567 0 c14 -10 24 -12 28 -5 4 6 11 8 16 4 5 -3 7
-9 4 -14 -6 -10 35 -41 45 -35 4 3 42 -2 85 -10 66 -13 83 -20 111 -50 18 -19
38 -35 44 -35 6 0 17 -6 23 -12 15 -16 40 -70 30 -66 -5 2 -21 10 -38 18 -16
8 -44 25 -61 37 -17 13 -40 23 -52 23 -11 0 -24 5 -27 11 -4 6 -26 10 -49 9
-58 -3 -60 -2 -45 16 12 14 11 16 -6 12 -14 -3 -20 -11 -18 -29 1 -22 -2 -25
-30 -22 -18 2 -56 4 -84 4 -46 1 -53 3 -53 21 0 18 -5 19 -42 15 -24 -3 -56
-8 -73 -12 -29 -6 -29 -6 -10 10 20 17 20 17 0 11 -12 -3 -45 1 -75 9 -113 32
-135 38 -153 37 -15 -1 -14 2 6 18 17 13 35 18 58 15 81 -11 176 -7 221 9 27
9 58 14 73 10 15 -4 25 -2 25 5 0 16 22 14 47 -4z m-5102 -5 c3 -5 1 -10 -4
-10 -6 0 -11 5 -11 10 0 6 2 10 4 10 3 0 8 -4 11 -10z m675 -50 c-13 -24 -12
-24 -40 0 -13 11 -20 23 -15 28 4 4 10 1 12 -5 8 -23 23 -14 23 14 l0 27 15
-22 c12 -16 13 -26 5 -42z m100 56 c0 -2 -7 -6 -15 -10 -8 -3 -15 -1 -15 4 0
6 7 10 15 10 8 0 15 -2 15 -4z m690 -11 c-7 -8 -16 -12 -21 -9 -13 8 -1 24 18
24 13 0 13 -3 3 -15z m460 -10 c0 -8 -2 -15 -4 -15 -2 0 -6 7 -10 15 -3 8 -1
15 4 15 6 0 10 -7 10 -15z m-2117 -2 c-7 -2 -19 -2 -25 0 -7 3 -2 5 12 5 14 0
19 -2 13 -5z m144 1 c-3 -3 -12 -4 -19 -1 -8 3 -5 6 6 6 11 1 17 -2 13 -5z
m465 -5 c16 -9 23 -8 29 2 6 9 9 -3 9 -33 0 -37 -3 -46 -14 -42 -8 3 -12 12
-9 20 3 8 0 14 -7 14 -7 0 -10 7 -6 15 4 10 -1 15 -14 15 -11 0 -20 5 -20 10
0 13 6 13 32 -1z m538 -24 c-7 -8 -21 -15 -30 -15 -10 0 -20 -6 -23 -12 -7
-22 -17 -3 -10 20 3 13 11 21 17 19 6 -2 17 3 25 10 19 20 39 0 21 -22z m-450
9 c0 -17 -22 -14 -28 4 -2 7 3 12 12 12 9 0 16 -7 16 -16z m339 -18 c-3 -3
-11 5 -18 17 -13 21 -12 21 5 5 10 -10 16 -20 13 -22z m651 4 c-24 -16 -31
-11 -19 11 8 16 14 18 22 10 9 -9 8 -14 -3 -21z m-1583 0 c-2 -23 -12 -26 -20
-6 -3 8 -1 17 6 20 7 2 13 5 14 5 1 1 1 -8 0 -19z m65 1 c11 -11 18 -25 16
-32 -3 -9 -8 -8 -18 3 -8 8 -23 13 -33 10 -17 -4 -18 -3 -6 17 17 26 15 25 41
2z m293 9 c4 -6 12 -7 18 -4 9 5 9 3 0 -6 -10 -10 -15 -11 -27 -1 -11 9 -15 9
-19 -1 -2 -7 -8 -9 -13 -5 -5 4 -2 12 6 17 19 12 27 12 35 0z m450 2 c11 -8
13 -67 2 -78 -4 -4 -7 -3 -7 2 0 10 -69 12 -85 2 -15 -9 -39 7 -31 21 9 13 53
15 61 1 8 -13 35 -1 35 17 0 8 5 11 10 8 14 -9 13 8 -2 23 -13 13 1 16 17 4z
m95 -37 c0 -28 24 -45 54 -37 12 3 19 3 16 1 -33 -27 -54 -42 -48 -35 11 12
-10 36 -26 30 -14 -5 -29 11 -39 41 -7 20 -7 20 8 1 15 -20 15 -20 15 0 0 11
-6 26 -12 33 -11 11 -9 11 10 2 13 -7 22 -21 22 -36z m380 16 c-6 -13 -17 -17
-30 -14 -11 3 -17 9 -14 15 3 5 11 5 19 -2 9 -8 14 -6 19 5 3 8 8 15 11 15 3
0 1 -9 -5 -19z m557 -3 c-3 -8 -6 -5 -6 6 -1 11 2 17 5 13 3 -3 4 -12 1 -19z
m2870 5 c-9 -9 -19 -14 -23 -11 -10 10 6 28 24 28 15 0 15 -1 -1 -17z m-4571
-8 c-25 -19 -41 -19 -24 0 7 8 20 14 28 14 11 0 10 -3 -4 -14z m1509 4 c-16
-5 -33 -5 -38 0 -4 4 9 8 30 8 38 1 38 1 8 -8z m-1680 -9 c3 -5 -1 -10 -9 -10
-9 0 -16 5 -16 10 0 6 4 10 9 10 6 0 13 -4 16 -10z m221 -68 c-9 -9 -15 2 -22
38 -5 24 -4 31 4 26 7 -4 13 -1 14 6 1 7 3 -4 5 -26 3 -21 2 -41 -1 -44z
m-283 61 c-7 -2 -19 -2 -25 0 -7 3 -2 5 12 5 14 0 19 -2 13 -5z m423 -8 c-4
-24 -16 -30 -16 -7 0 12 4 22 9 22 5 0 8 -7 7 -15z m94 -22 c0 -16 -5 -16 -31
-3 -10 6 -19 17 -19 25 0 12 5 12 25 3 14 -6 25 -17 25 -25z m674 -3 c29 0 50
-15 41 -29 -5 -9 -11 -7 -22 6 -13 17 -14 17 -9 1 7 -23 -3 -23 -19 -1 -12 16
-15 16 -34 -7 -17 -21 -20 -22 -21 -7 0 10 5 15 10 12 15 -9 12 15 -4 31 -8 8
-21 14 -28 14 -10 0 -10 2 1 9 10 7 23 3 39 -10 14 -10 34 -19 46 -19z m247
17 c-10 -9 -11 -8 -5 6 3 10 9 15 12 12 3 -3 0 -11 -7 -18z m213 10 c3 3 6 1
6 -5 0 -18 -37 -15 -44 3 -4 12 -2 13 13 6 10 -6 21 -7 25 -4z m-599 -7 c-3
-5 -13 -10 -21 -10 -8 0 -12 5 -9 10 3 6 13 10 21 10 8 0 12 -4 9 -10z m515
-6 c0 -8 -4 -12 -10 -9 -5 3 -10 10 -10 16 0 5 5 9 10 9 6 0 10 -7 10 -16z
m4050 12 c0 -3 -4 -8 -10 -11 -5 -3 -10 -1 -10 4 0 6 5 11 10 11 6 0 10 -2 10
-4z m-5675 -16 c8 -13 -5 -13 -25 0 -13 8 -13 10 2 10 9 0 20 -4 23 -10z m95
-55 l0 -30 -20 25 c-11 14 -20 29 -20 33 0 5 -15 6 -32 3 -30 -5 -31 -5 -10 6
12 6 22 15 22 19 0 4 13 0 30 -9 23 -13 30 -24 30 -47z m19 48 c7 -14 12 -15
24 -5 10 9 17 10 22 2 3 -5 1 -10 -5 -10 -7 0 -10 -7 -6 -15 9 -24 -8 -17 -39
15 -16 17 -24 30 -17 30 6 0 15 -8 21 -17z m169 -14 c4 -24 3 -24 -12 -4 -19
24 -20 38 -3 33 6 -3 13 -15 15 -29z m372 21 c0 -5 -4 -10 -9 -10 -6 0 -13 5
-16 10 -3 6 1 10 9 10 9 0 16 -4 16 -10z m695 0 c3 -5 -1 -10 -10 -10 -9 0
-13 5 -10 10 3 6 8 10 10 10 2 0 7 -4 10 -10z m4365 -22 c0 -13 -23 -5 -28 10
-2 7 2 10 12 6 9 -3 16 -11 16 -16z m-5524 -15 c-10 -10 -19 5 -10 18 6 11 8
11 12 0 2 -7 1 -15 -2 -18z m512 -14 c2 -36 -9 -26 -23 20 -5 17 -4 22 6 19 8
-3 15 -20 17 -39z m37 31 c3 -5 1 -10 -4 -10 -6 0 -11 5 -11 10 0 6 2 10 4 10
3 0 8 -4 11 -10z m-89 -37 c-3 -4 -6 -1 -6 5 0 7 -7 12 -15 12 -8 0 -15 -5
-15 -11 0 -5 -4 -7 -10 -4 -17 11 -11 23 13 27 21 3 45 -17 33 -29z m991 31
c-3 -3 -12 -4 -19 -1 -8 3 -5 6 6 6 11 1 17 -2 13 -5z m-1182 -14 c3 -6 -1 -7
-9 -4 -18 7 -21 14 -7 14 6 0 13 -4 16 -10z m383 -1 c-13 -7 -16 -17 -11 -39
6 -31 -9 -60 -31 -60 -7 0 -6 4 2 9 21 13 19 17 -12 46 -17 16 -36 25 -47 22
-11 -3 -19 -2 -19 2 0 7 80 26 120 29 11 1 11 -1 -2 -9z m66 -15 c3 -8 2 -12
-4 -9 -6 3 -10 10 -10 16 0 14 7 11 14 -7z m459 9 c-7 -2 -19 -2 -25 0 -7 3
-2 5 12 5 14 0 19 -2 13 -5z m-47 -40 c-3 -3 -13 0 -22 8 -15 12 -14 14 3 20
17 6 32 -15 19 -28z m-826 23 c0 -2 3 -11 6 -20 3 -9 1 -16 -5 -16 -6 0 -11 6
-11 14 0 8 -6 17 -12 19 -8 3 -6 6 5 6 9 1 17 -1 17 -3z m60 -6 c0 -5 -7 -7
-15 -4 -8 4 -15 8 -15 10 0 2 7 4 15 4 8 0 15 -4 15 -10z m420 -11 c0 -6 -4
-7 -10 -4 -5 3 -10 11 -10 16 0 6 5 7 10 4 6 -3 10 -11 10 -16z m127 2 c1 -14
-3 -18 -13 -14 -17 6 -19 33 -1 33 7 0 13 -9 14 -19z m-897 -1 c0 -5 -2 -10
-4 -10 -3 0 -8 5 -11 10 -3 6 -1 10 4 10 6 0 11 -4 11 -10z m670 0 c0 -5 -8
-10 -17 -10 -15 0 -16 2 -3 10 19 12 20 12 20 0z m615 -9 c-3 -6 -11 -8 -17
-5 -6 4 -5 9 3 15 16 10 23 4 14 -10z m-1315 0 c0 -9 -24 -21 -42 -21 -6 0 -6
6 2 15 14 16 40 20 40 6z m590 -7 c0 -2 -7 -4 -15 -4 -8 0 -15 4 -15 10 0 5 7
7 15 4 8 -4 15 -8 15 -10z m510 1 c-7 -8 -17 -15 -22 -15 -6 0 -5 7 2 15 7 8
17 15 22 15 6 0 5 -7 -2 -15z m-1245 -5 c-3 -5 -11 -10 -16 -10 -6 0 -7 5 -4
10 3 6 11 10 16 10 6 0 7 -4 4 -10z m1195 6 c0 -3 -4 -8 -10 -11 -5 -3 -10 -1
-10 4 0 6 5 11 10 11 6 0 10 -2 10 -4z m-1130 -21 c11 -13 10 -14 -4 -9 -9 3
-16 10 -16 15 0 13 6 11 20 -6z m570 11 c0 -2 -7 -7 -16 -10 -8 -3 -12 -2 -9
4 6 10 25 14 25 6z m250 -31 c0 -24 -24 -40 -43 -28 -6 4 -1 10 12 15 17 6 22
14 18 28 -3 11 -1 18 4 14 5 -3 9 -16 9 -29z m60 13 c0 -5 -4 -7 -9 -4 -5 4
-12 0 -14 -6 -3 -7 -6 -3 -6 9 -1 16 3 21 14 17 8 -4 15 -10 15 -16z m80 7 c0
-8 -4 -15 -9 -15 -13 0 -22 16 -14 24 11 11 23 6 23 -9z m4226 -34 c15 -25 19
-27 31 -15 30 29 106 8 101 -28 -4 -31 -49 -46 -90 -30 -27 10 -35 9 -49 -4
-14 -12 -31 -15 -81 -10 -77 7 -77 7 -160 0 -58 -5 -69 -3 -87 15 -26 26 -26
32 0 65 23 30 43 32 117 12 42 -11 54 -11 60 -1 8 15 38 22 99 24 36 1 44 -3
59 -28z m-3726 9 c0 -5 -4 -10 -10 -10 -5 0 -10 5 -10 10 0 6 5 10 10 10 6 0
10 -4 10 -10z m-1050 -15 c10 -12 10 -15 -4 -15 -9 0 -16 7 -16 15 0 8 2 15 4
15 2 0 9 -7 16 -15z m150 -25 c0 -5 -4 -10 -10 -10 -5 0 -10 5 -10 10 0 6 5
10 10 10 6 0 10 -4 10 -10z m260 -26 c0 -8 -4 -14 -8 -14 -4 0 -8 9 -8 19 0
11 4 17 8 15 4 -3 8 -12 8 -20z m507 -6 c-3 -7 -5 -2 -5 12 0 14 2 19 5 13 2
-7 2 -19 0 -25z m-871 -25 c-7 -7 -36 23 -36 38 0 7 9 3 21 -10 12 -12 19 -25
15 -28z m4949 19 c6 -4 10 -13 10 -21 0 -31 98 -37 227 -15 32 5 36 4 33 -12
-3 -14 8 -27 42 -49 26 -17 48 -39 49 -50 3 -19 32 -49 54 -57 5 -2 7 -14 3
-26 -3 -14 -9 -19 -13 -12 -4 6 -14 -6 -25 -30 -16 -35 -17 -47 -7 -72 7 -20
8 -37 2 -47 -7 -12 -9 -13 -10 -2 0 11 -5 10 -20 -4 -14 -13 -17 -21 -9 -26 6
-4 8 -12 5 -18 -10 -15 -46 4 -46 24 0 16 -16 20 -24 6 -3 -5 2 -12 11 -15 14
-6 15 -9 4 -16 -8 -4 -20 -6 -27 -3 -8 3 -16 -5 -20 -21 -3 -15 -14 -26 -27
-28 -12 -2 -27 -13 -33 -25 -16 -33 -45 -63 -61 -63 -7 0 -13 -4 -13 -10 0 -5
-12 -10 -27 -10 -16 0 -47 -10 -71 -22 -36 -19 -44 -21 -52 -9 -6 11 -12 12
-22 3 -10 -8 -31 -9 -69 -3 -30 5 -56 5 -59 1 -12 -18 -66 3 -85 33 -22 35
-50 40 -145 26 -69 -11 -97 -2 -97 28 0 16 6 27 18 30 17 5 17 6 2 22 -16 15
-15 16 15 19 32 3 43 17 20 25 -7 2 -10 8 -6 12 4 4 14 3 21 -3 10 -9 18 -8
33 3 22 17 174 21 174 5 0 -5 7 -10 15 -10 8 0 15 5 15 11 0 7 11 9 29 6 16
-4 31 -2 33 3 2 5 24 11 50 12 40 3 47 6 42 21 -3 11 0 17 9 17 9 0 18 6 20
13 4 9 8 8 16 -3 7 -9 11 -10 11 -3 0 7 11 23 24 37 24 27 30 74 11 89 -7 6
-6 10 3 14 20 8 14 22 -8 16 -11 -3 -27 0 -35 7 -11 9 -18 10 -29 1 -7 -6 -21
-8 -31 -5 -9 4 -20 2 -24 -5 -8 -12 -199 -16 -306 -5 -27 2 -73 4 -100 4 -28
-1 -62 3 -75 8 l-25 10 26 7 c27 7 35 41 11 39 -29 -2 -33 -5 -26 -16 4 -7 -7
-2 -24 11 -18 12 -30 26 -28 30 3 4 -8 5 -24 3 -20 -3 -34 2 -46 17 -10 12
-24 21 -31 21 -7 0 -13 5 -13 10 0 6 5 10 11 10 5 0 7 5 4 10 -12 20 28 22 98
6 71 -16 312 -26 332 -14 6 3 53 11 105 17 52 7 102 13 110 15 42 8 70 19 70
27 0 11 11 11 25 1z m-4768 -98 c-3 -3 -12 -4 -19 -1 -8 3 -5 6 6 6 11 1 17
-2 13 -5z m73 -14 c0 -5 -5 -10 -11 -10 -5 0 -7 5 -4 10 3 6 8 10 11 10 2 0 4
-4 4 -10z m108 -4 c-13 -14 -28 -12 -28 5 0 5 9 9 20 9 17 0 19 -2 8 -14z
m-108 -46 c0 -5 -2 -10 -4 -10 -3 0 -8 5 -11 10 -3 6 -1 10 4 10 6 0 11 -4 11
-10z m97 -46 c-3 -3 -12 -4 -19 -1 -8 3 -5 6 6 6 11 1 17 -2 13 -5z m-87 -18
c0 -11 -19 -15 -25 -6 -3 5 1 10 9 10 9 0 16 -2 16 -4z m-80 -36 c0 -5 -7 -7
-15 -4 -8 4 -15 8 -15 10 0 2 7 4 15 4 8 0 15 -4 15 -10z m83 -27 c-7 -2 -21
-2 -30 0 -10 3 -4 5 12 5 17 0 24 -2 18 -5z m6084 -97 c-3 -7 -1 -19 4 -25 5
-6 2 -5 -7 3 -9 8 -13 19 -10 25 10 16 19 14 13 -3z m-6227 -26 c0 -5 -2 -10
-4 -10 -3 0 -8 5 -11 10 -3 6 -1 10 4 10 6 0 11 -4 11 -10z m6310 -56 c0 -17
-26 -19 -36 -3 -7 12 15 31 28 23 4 -3 8 -12 8 -20z m-6284 -11 c-10 -10 -19
5 -10 18 6 11 8 11 12 0 2 -7 1 -15 -2 -18z m6224 13 c0 -3 -4 -8 -10 -11 -5
-3 -10 -1 -10 4 0 6 5 11 10 11 6 0 10 -2 10 -4z m-2210 -28 c0 -6 9 -8 20 -5
25 6 26 -8 3 -22 -16 -9 -16 -10 4 -11 16 0 20 -5 16 -20 -3 -11 -9 -20 -13
-20 -11 0 -41 36 -35 42 3 3 -1 11 -10 18 -20 16 -20 41 0 34 8 -4 15 -11 15
-16z m2170 7 c0 -8 -4 -15 -10 -15 -5 0 -7 7 -4 15 4 8 8 15 10 15 2 0 4 -7 4
-15z m75 -5 c3 -5 11 -7 18 -4 7 2 18 -10 26 -27 12 -28 12 -33 -3 -41 -9 -5
-14 -14 -11 -19 4 -5 11 -6 17 -3 8 5 9 -3 5 -26 -7 -30 -6 -32 17 -26 25 6
51 -14 28 -22 -21 -7 -13 -25 8 -19 25 6 25 2 1 -24 -11 -12 -24 -18 -30 -14
-6 3 -11 0 -11 -7 0 -8 -9 -14 -20 -14 -22 0 -26 16 -9 33 8 8 8 17 0 31 -6
11 -8 28 -5 37 4 10 -2 24 -15 36 -23 22 -26 35 -11 44 17 10 12 48 -5 41 -8
-3 -15 -4 -15 -2 0 3 -3 11 -6 20 -7 17 11 22 21 6z m-2143 -52 c-15 -15 -27
14 -17 40 6 15 8 15 18 -6 7 -16 7 -26 -1 -34z m2238 32 c-8 -5 -17 -7 -19 -4
-3 3 1 9 9 14 8 5 17 7 19 4 3 -3 -1 -9 -9 -14z m-2170 -10 c0 -5 -7 -10 -16
-10 -8 0 -12 5 -9 10 3 6 10 10 16 10 5 0 9 -4 9 -10z m2174 -46 c7 -27 -7
-54 -28 -54 -6 0 -4 5 4 10 10 6 11 10 3 10 -7 0 -13 5 -13 11 0 5 4 8 9 5 4
-3 6 6 3 19 -6 33 14 32 22 -1z m-2134 6 c0 -5 -4 -10 -10 -10 -5 0 -10 5 -10
10 0 6 5 10 10 10 6 0 10 -4 10 -10z m2177 -32 c-3 -8 -6 -5 -6 6 -1 11 2 17
5 13 3 -3 4 -12 1 -19z m27 -68 c11 -22 24 -40 30 -40 6 0 4 -5 -4 -9 -19 -11
-72 -2 -64 11 3 5 14 6 25 3 11 -4 19 -2 19 5 0 6 -4 8 -10 5 -5 -3 -10 0 -10
8 0 8 -7 20 -15 27 -8 7 -15 19 -15 26 0 24 25 4 44 -36z m66 -40 c0 -5 -4
-10 -10 -10 -5 0 -10 5 -10 10 0 6 5 10 10 10 6 0 10 -4 10 -10z m-69 -63 c-8
-8 -11 -7 -11 4 0 9 3 19 7 23 4 4 9 2 11 -4 3 -7 -1 -17 -7 -23z m59 29 c0
-2 -9 -6 -20 -9 -11 -3 -20 -1 -20 4 0 5 9 9 20 9 11 0 20 -2 20 -4z m-107
-35 c22 -38 24 -69 2 -51 -8 7 -15 9 -15 5 0 -5 -8 -1 -19 9 -12 11 -16 25
-13 41 6 33 24 32 45 -4z m152 -25 c0 -10 9 -22 20 -26 17 -6 17 -7 -5 -13
-28 -7 -60 8 -60 29 0 8 -4 12 -10 9 -5 -3 -10 -13 -10 -21 0 -8 5 -12 10 -9
6 3 10 2 10 -4 0 -5 12 -16 27 -23 33 -16 37 -27 17 -53 -14 -19 -16 -19 -28
-2 -7 9 -18 17 -24 17 -6 0 -9 7 -6 15 10 25 -14 17 -32 -11 -24 -35 -28 -84
-9 -84 8 0 15 -7 15 -17 0 -9 -3 -13 -7 -9 -12 12 -32 -86 -22 -111 10 -26 -3
-74 -15 -55 -11 18 -25 5 -19 -18 4 -14 0 -20 -12 -20 -13 0 -16 6 -12 21 4
14 -2 29 -19 46 -30 30 -30 36 -1 48 25 11 30 40 7 40 -8 0 -22 7 -32 17 -20
20 -33 58 -19 58 5 0 16 3 25 6 12 5 16 0 16 -19 0 -32 14 -42 30 -22 10 11 8
20 -9 40 -15 20 -18 32 -11 49 4 13 4 29 -2 39 -5 9 -7 21 -3 26 3 5 -1 12 -7
15 -7 3 2 3 21 0 19 -3 40 1 49 8 13 11 14 10 8 -14 -4 -17 -2 -28 4 -28 5 0
10 7 10 15 0 8 7 15 15 15 18 0 19 5 3 29 -20 33 -5 48 44 42 34 -5 43 -10 43
-25z m-242 -2 c3 -4 2 -15 -4 -26 -8 -15 -7 -24 5 -37 15 -16 14 -19 -8 -40
-20 -19 -24 -20 -36 -6 -10 13 -9 15 9 15 23 0 29 24 9 37 -7 4 -21 6 -30 5
-10 -2 -18 2 -18 7 0 6 6 11 14 11 9 0 12 7 9 20 -4 16 0 20 19 20 14 0 28 -3
31 -6z m-93 -25 c0 -5 -4 -9 -10 -9 -5 0 -10 7 -10 16 0 8 5 12 10 9 6 -3 10
-10 10 -16z m-22 -40 c18 -29 8 -35 -16 -11 -11 11 -18 23 -14 26 10 10 17 7
30 -15z m52 -44 c0 -14 -2 -25 -4 -25 -2 0 -6 11 -8 25 -3 14 -1 25 3 25 5 0
9 -11 9 -25z m90 -16 c0 -5 -4 -9 -10 -9 -5 0 -10 7 -10 16 0 8 5 12 10 9 6
-3 10 -10 10 -16z m164 -27 c-9 -34 -22 -26 -21 13 1 29 3 33 14 23 7 -7 10
-23 7 -36z m-289 28 c3 -5 1 -10 -4 -10 -6 0 -11 5 -11 10 0 6 2 10 4 10 3 0
8 -4 11 -10z m95 -30 c12 -8 11 -10 -7 -10 -13 0 -23 5 -23 10 0 13 11 13 30
0z m-120 -19 c0 -6 -4 -13 -10 -16 -5 -3 -10 1 -10 9 0 9 5 16 10 16 6 0 10
-4 10 -9z m100 -26 c0 -8 -7 -15 -15 -15 -26 0 -18 20 13 29 1 1 2 -6 2 -14z
m-46 -57 c7 -5 5 -8 -6 -8 -14 0 -18 8 -17 33 2 27 2 28 6 7 3 -14 10 -28 17
-32z m56 22 c0 -5 -4 -10 -10 -10 -5 0 -10 5 -10 10 0 6 5 10 10 10 6 0 10 -4
10 -10z m-101 -71 c-16 -10 -23 -4 -14 10 3 6 11 8 17 5 6 -4 5 -9 -3 -15z
m48 -5 c-9 -9 -28 6 -21 18 4 6 10 6 17 -1 6 -6 8 -13 4 -17z m51 9 c-4 -23
-38 -30 -38 -8 0 9 5 13 10 10 6 -3 10 -1 10 4 0 6 5 11 11 11 6 0 9 -8 7 -17z
m62 -48 c0 -9 -6 -12 -15 -9 -8 4 -15 10 -15 15 0 5 7 9 15 9 8 0 15 -7 15
-15z m-115 -5 c3 -5 1 -10 -4 -10 -6 0 -11 5 -11 10 0 6 2 10 4 10 3 0 8 -4
11 -10z m28 -25 c-16 -22 -33 -32 -33 -20 0 9 34 45 43 45 4 0 0 -11 -10 -25z
m-13 -70 c-7 -9 -15 -13 -17 -11 -6 6 20 36 26 30 2 -2 -2 -10 -9 -19z m173 5
c3 -11 2 -20 -3 -20 -4 0 -10 9 -13 20 -3 11 -2 20 3 20 4 0 10 -9 13 -20z
m-168 -50 c3 -6 -1 -7 -9 -4 -18 7 -21 14 -7 14 6 0 13 -4 16 -10z m-11 -31
c-8 -14 -24 -10 -24 6 0 9 6 12 15 9 8 -4 12 -10 9 -15z m116 -4 c19 6 60 -36
60 -61 0 -23 -18 -16 -32 14 -7 15 -20 27 -28 27 -26 1 -39 15 -32 33 6 16 7
16 10 -1 2 -12 9 -16 22 -12z m60 15 c0 -5 -4 -10 -10 -10 -5 0 -10 5 -10 10
0 6 5 10 10 10 6 0 10 -4 10 -10z m-137 -14 c6 -16 -2 -28 -14 -20 -12 7 -11
34 0 34 5 0 11 -6 14 -14z m-25 -61 c-8 -9 -48 8 -48 19 0 23 12 24 32 4 11
-11 18 -21 16 -23z m102 -50 c0 -8 -4 -15 -9 -15 -5 0 -11 7 -15 15 -3 9 0 15
9 15 8 0 15 -7 15 -15z m-612 -17 c-3 -7 -13 -15 -23 -16 -15 -4 -16 -2 -4 12
17 19 32 21 27 4z m-2457 -265 c12 -16 12 -17 -2 -6 -9 7 -20 9 -24 5 -5 -4
-5 -1 -1 6 9 16 11 15 27 -5z m569 -339 c0 -9 -28 -3 -46 11 -17 13 -16 14 14
4 17 -6 32 -13 32 -15z"/>
<path d="M6390 7325 c0 -8 2 -15 4 -15 2 0 6 7 10 15 3 8 1 15 -4 15 -6 0 -10
-7 -10 -15z"/>
<path d="M6513 7132 c-23 -15 -19 -45 7 -53 14 -4 20 -7 14 -8 -22 -2 -20 -55
2 -79 l22 -23 -3 74 c-2 91 -11 109 -42 89z"/>
<path d="M6405 7110 c3 -5 8 -10 11 -10 2 0 4 5 4 10 0 6 -5 10 -11 10 -5 0
-7 -4 -4 -10z"/>
<path d="M6562 7049 c2 -7 10 -15 17 -17 8 -3 12 1 9 9 -2 7 -10 15 -17 17 -8
3 -12 -1 -9 -9z"/>
<path d="M5022 6749 c2 -7 10 -15 17 -17 8 -3 12 1 9 9 -2 7 -10 15 -17 17 -8
3 -12 -1 -9 -9z"/>
<path d="M713 6424 c-37 -16 -44 -34 -13 -31 11 1 20 7 20 14 0 7 7 13 15 13
8 0 15 5 15 10 0 6 -1 10 -2 9 -2 0 -18 -7 -35 -15z"/>
<path d="M848 6233 c-16 -4 -35 -59 -24 -70 6 -7 29 16 44 44 19 34 17 36 -20
26z"/>
<path d="M840 6086 c0 -2 7 -9 15 -16 12 -10 15 -10 15 4 0 9 -7 16 -15 16 -8
0 -15 -2 -15 -4z"/>
<path d="M7130 4884 c0 -8 5 -12 10 -9 6 3 10 10 10 16 0 5 -4 9 -10 9 -5 0
-10 -7 -10 -16z"/>
<path d="M7103 4813 c9 -2 17 -9 17 -14 0 -6 5 -7 10 -4 19 12 10 25 -17 24
-17 -1 -21 -3 -10 -6z"/>
<path d="M3643 9373 c9 -2 25 -2 35 0 9 3 1 5 -18 5 -19 0 -27 -2 -17 -5z"/>
<path d="M3803 9373 c15 -2 39 -2 55 0 15 2 2 4 -28 4 -30 0 -43 -2 -27 -4z"/>
<path d="M3465 8290 c3 -5 8 -10 11 -10 2 0 4 5 4 10 0 6 -5 10 -11 10 -5 0
-7 -4 -4 -10z"/>
<path d="M2353 8249 c14 -8 22 -8 30 0 8 8 3 11 -18 11 -26 -1 -28 -2 -12 -11z"/>
<path d="M2690 8250 c8 -5 22 -9 30 -9 10 0 8 3 -5 9 -27 12 -43 12 -25 0z"/>
<path d="M2590 8220 c0 -5 7 -10 15 -10 8 0 15 5 15 10 0 6 -7 10 -15 10 -8 0
-15 -4 -15 -10z"/>
<path d="M2647 8224 c-8 -8 1 -24 14 -24 5 0 9 7 9 15 0 15 -12 20 -23 9z"/>
<path d="M2430 8180 c0 -4 11 -10 25 -12 13 -3 22 -2 20 2 -7 11 -45 20 -45
10z"/>
<path d="M2269 8071 c6 -10 25 -21 43 -23 18 -3 41 -8 51 -13 9 -4 17 -3 17 2
0 13 -46 33 -75 33 -14 0 -25 5 -25 10 0 6 -5 10 -10 10 -7 0 -7 -6 -1 -19z"/>
<path d="M2110 8070 c0 -5 5 -10 11 -10 5 0 7 5 4 10 -3 6 -8 10 -11 10 -2 0
-4 -4 -4 -10z"/>
<path d="M2575 8000 c3 -5 18 -10 33 -9 24 0 25 1 7 9 -28 12 -47 12 -40 0z"/>
<path d="M2548 7883 c7 -3 16 -2 19 1 4 3 -2 6 -13 5 -11 0 -14 -3 -6 -6z"/>
<path d="M2608 7790 c-10 -11 -13 -22 -8 -25 14 -9 27 1 33 25 7 25 -4 26 -25
0z"/>
<path d="M2515 7750 c-3 -5 -1 -10 4 -10 6 0 11 -8 11 -17 1 -30 25 -53 54
-51 29 3 41 26 31 59 -5 15 -10 18 -20 9 -8 -6 -11 -18 -8 -26 3 -9 -1 -14
-12 -14 -13 0 -16 6 -11 28 3 15 3 21 0 15 -8 -18 -24 -16 -24 2 0 17 -16 20
-25 5z"/>
<path d="M2450 7695 c-7 -9 -21 -13 -30 -10 -20 6 -34 -17 -18 -33 6 -6 6 -12
-2 -17 -7 -4 -16 -2 -20 5 -5 8 -15 10 -26 6 -15 -6 -13 -10 17 -28 19 -11 40
-29 47 -39 7 -11 21 -19 30 -19 10 0 27 -6 38 -14 22 -16 29 -13 59 23 l20 24
-22 -5 c-26 -7 -38 5 -28 30 5 13 8 14 15 3 4 -8 15 -11 24 -8 12 5 14 12 7
29 -8 23 -51 39 -51 19 0 -6 -11 -1 -25 11 -13 11 -22 25 -19 30 9 14 -3 9
-16 -7z m-5 -55 c3 -5 1 -10 -4 -10 -6 0 -11 5 -11 10 0 6 2 10 4 10 3 0 8 -4
11 -10z m48 -40 c3 -11 1 -20 -4 -20 -5 0 -9 2 -9 4 0 2 -3 11 -6 20 -3 9 -2
16 4 16 5 0 12 -9 15 -20z"/>
<path d="M2310 7692 c0 -12 19 -26 26 -19 2 2 -2 10 -11 17 -9 8 -15 8 -15 2z"/>
<path d="M2151 7655 c1 -22 16 -48 22 -38 3 5 0 19 -8 29 -8 10 -14 15 -14 9z"/>
<path d="M2293 7643 c9 -9 19 -14 23 -11 10 10 -6 28 -24 28 -15 0 -15 -1 1
-17z"/>
<path d="M2615 7616 c0 -23 -3 -32 -12 -29 -6 3 -17 2 -22 -1 -15 -9 -1 -38
15 -32 8 3 11 0 8 -8 -3 -7 0 -23 5 -37 l10 -24 0 28 c1 15 6 27 12 27 8 0 10
15 6 46 -6 56 -24 80 -22 30z"/>
<path d="M1995 7619 c-9 -28 -2 -33 13 -9 6 11 8 21 3 25 -5 3 -13 -4 -16 -16z"/>
<path d="M2100 7629 c0 -5 5 -7 10 -4 6 3 10 8 10 11 0 2 -4 4 -10 4 -5 0 -10
-5 -10 -11z"/>
<path d="M2764 7625 c8 -8 18 -15 22 -15 3 0 1 7 -6 15 -7 8 -17 15 -22 15 -5
0 -3 -7 6 -15z"/>
<path d="M2080 7600 c0 -5 5 -10 11 -10 5 0 7 5 4 10 -3 6 -8 10 -11 10 -2 0
-4 -4 -4 -10z"/>
<path d="M2020 7570 c0 -5 9 -10 21 -10 11 0 17 5 14 10 -3 6 -13 10 -21 10
-8 0 -14 -4 -14 -10z"/>
<path d="M2143 7558 c-2 -5 12 -8 31 -8 19 0 38 5 41 10 4 6 -8 9 -30 8 -20
-2 -39 -6 -42 -10z"/>
<path d="M2280 7530 c0 -19 3 -21 12 -12 9 9 9 15 0 24 -9 9 -12 7 -12 -12z"/>
<path d="M2190 7533 c-85 -13 -90 -14 -90 -31 0 -27 86 -29 100 -2 6 11 17 20
25 20 8 0 15 5 15 10 0 10 -5 10 -50 3z m-20 -27 c0 -3 -4 -8 -10 -11 -5 -3
-10 -1 -10 4 0 6 5 11 10 11 6 0 10 -2 10 -4z"/>
<path d="M3215 7521 c-3 -6 4 -15 15 -21 23 -12 26 -5 6 16 -9 8 -17 10 -21 5z"/>
<path d="M2340 7510 c0 -5 5 -10 11 -10 5 0 7 5 4 10 -3 6 -8 10 -11 10 -2 0
-4 -4 -4 -10z"/>
<path d="M2850 7503 c0 -13 5 -23 10 -23 13 0 13 11 0 30 -8 12 -10 11 -10 -7z"/>
<path d="M1990 7502 c0 -11 41 -34 48 -28 3 4 -3 13 -14 21 -21 16 -34 19 -34
7z"/>
<path d="M2210 7489 c0 -6 18 -18 40 -27 40 -17 54 -42 24 -42 -10 0 -14 -7
-12 -17 2 -10 10 -17 17 -15 9 2 12 -4 7 -22 -6 -23 9 -39 40 -41 6 0 18 -6
27 -14 9 -7 22 -9 29 -5 26 17 68 12 83 -9 8 -11 16 -19 17 -16 24 38 25 44 5
62 -11 9 -23 13 -26 8 -9 -13 -78 -25 -84 -14 -7 10 28 44 36 36 3 -3 11 -1
18 3 9 5 4 10 -16 16 -18 4 -31 4 -33 -2 -5 -15 -22 -12 -22 4 0 9 -7 12 -19
9 -21 -5 -37 25 -21 41 17 17 11 26 -17 26 -16 0 -41 7 -57 15 -34 18 -36 18
-36 4z m135 -129 c0 -22 -29 -18 -33 3 -3 14 1 18 15 15 10 -2 18 -10 18 -18z"/>
<path d="M3350 7490 c0 -5 5 -10 10 -10 6 0 10 5 10 10 0 6 -4 10 -10 10 -5 0
-10 -4 -10 -10z"/>
<path d="M3281 7464 c0 -11 3 -14 6 -6 3 7 2 16 -1 19 -3 4 -6 -2 -5 -13z"/>
<path d="M3445 7470 c3 -5 8 -10 11 -10 2 0 4 5 4 10 0 6 -5 10 -11 10 -5 0
-7 -4 -4 -10z"/>
<path d="M2346 7463 c-9 -9 -7 -33 3 -33 12 0 22 28 12 34 -5 3 -11 3 -15 -1z"/>
<path d="M2680 7455 c0 -8 7 -15 15 -15 8 0 15 7 15 15 0 8 -7 15 -15 15 -8 0
-15 -7 -15 -15z"/>
<path d="M2778 7445 c-3 -14 -1 -25 3 -25 5 0 9 4 9 9 0 5 3 16 6 25 3 9 2 16
-4 16 -5 0 -12 -11 -14 -25z"/>
<path d="M2160 7449 c0 -5 5 -7 10 -4 6 3 10 8 10 11 0 2 -4 4 -10 4 -5 0 -10
-5 -10 -11z"/>
<path d="M2405 7450 c4 -6 11 -8 16 -5 14 9 11 15 -7 15 -8 0 -12 -5 -9 -10z"/>
<path d="M2466 7451 c-4 -7 -5 -15 -2 -18 9 -9 19 4 14 18 -4 11 -6 11 -12 0z"/>
<path d="M3202 7435 c0 -16 2 -22 5 -12 2 9 2 23 0 30 -3 6 -5 -1 -5 -18z"/>
<path d="M3247 7446 c-4 -10 4 -18 29 -26 38 -13 50 -9 41 14 -4 9 -14 12 -27
9 -13 -3 -25 0 -30 6 -5 10 -9 9 -13 -3z"/>
<path d="M2210 7435 c0 -8 9 -19 20 -25 15 -8 20 -8 20 3 0 14 -19 37 -32 37
-4 0 -8 -7 -8 -15z"/>
<path d="M2820 7440 c0 -7 -7 -21 -15 -30 -15 -16 -14 -18 8 -22 35 -7 52 24
26 48 -14 12 -19 13 -19 4z"/>
<path d="M3371 7434 c0 -11 3 -14 6 -6 3 7 2 16 -1 19 -3 4 -6 -2 -5 -13z"/>
<path d="M2090 7417 c0 -7 11 -23 24 -34 13 -12 28 -29 33 -38 6 -9 16 -15 24
-14 9 3 -2 20 -33 52 -27 26 -48 41 -48 34z"/>
<path d="M3420 7421 c0 -6 5 -13 10 -16 6 -3 10 1 10 9 0 9 -4 16 -10 16 -5 0
-10 -4 -10 -9z"/>
<path d="M3241 7404 c0 -11 3 -14 6 -6 3 7 2 16 -1 19 -3 4 -6 -2 -5 -13z"/>
<path d="M2470 7398 c0 -4 14 -8 30 -8 17 0 30 4 30 8 0 5 -13 9 -30 9 -16 0
-30 -4 -30 -9z"/>
<path d="M3336 7383 c-11 -16 -15 -28 -9 -34 13 -13 35 15 31 40 -3 18 -4 17
-22 -6z"/>
<path d="M2555 7390 c-3 -5 1 -10 10 -10 9 0 13 5 10 10 -3 6 -8 10 -10 10 -2
0 -7 -4 -10 -10z"/>
<path d="M3240 7344 c-11 -20 -18 -44 -15 -52 5 -14 29 21 49 73 11 29 -12 14
-34 -21z"/>
<path d="M2592 7353 c-8 -14 -9 -24 -2 -28 12 -7 24 18 18 37 -3 8 -9 5 -16
-9z"/>
<path d="M6881 7354 c0 -11 3 -14 6 -6 3 7 2 16 -1 19 -3 4 -6 -2 -5 -13z"/>
<path d="M3297 7346 c-4 -10 -5 -21 -2 -24 9 -9 17 6 13 25 -3 17 -4 17 -11
-1z"/>
<path d="M2800 7334 c0 -8 5 -12 10 -9 6 3 10 10 10 16 0 5 -4 9 -10 9 -5 0
-10 -7 -10 -16z"/>
<path d="M3500 7331 c0 -5 5 -13 10 -16 6 -3 10 -2 10 4 0 5 -4 13 -10 16 -5
3 -10 2 -10 -4z"/>
<path d="M2095 7320 c3 -5 11 -10 16 -10 6 0 7 5 4 10 -3 6 -11 10 -16 10 -6
0 -7 -4 -4 -10z"/>
<path d="M2646 7323 c-11 -11 -6 -23 9 -23 8 0 15 4 15 9 0 13 -16 22 -24 14z"/>
<path d="M3336 7298 c8 -27 12 -33 19 -27 7 8 -7 49 -17 49 -5 0 -6 -10 -2
-22z"/>
<path d="M3251 7288 c0 -7 4 -22 9 -33 8 -19 9 -19 9 3 1 12 1 25 2 29 0 4 -4
9 -10 11 -6 2 -11 -2 -10 -10z"/>
<path d="M3476 7293 c-3 -3 -3 -10 0 -14 7 -12 34 -11 34 0 0 11 -26 22 -34
14z"/>
<path d="M2240 7286 c0 -2 7 -7 16 -10 8 -3 12 -2 9 4 -6 10 -25 14 -25 6z"/>
<path d="M2770 7281 c0 -6 5 -13 10 -16 6 -3 10 1 10 9 0 9 -4 16 -10 16 -5 0
-10 -4 -10 -9z"/>
<path d="M2430 7270 c0 -5 5 -10 10 -10 6 0 10 5 10 10 0 6 -4 10 -10 10 -5 0
-10 -4 -10 -10z"/>
<path d="M2490 7250 c0 -5 5 -10 10 -10 6 0 10 5 10 10 0 6 -4 10 -10 10 -5 0
-10 -4 -10 -10z"/>
<path d="M3280 7250 c0 -5 5 -10 10 -10 6 0 10 5 10 10 0 6 -4 10 -10 10 -5 0
-10 -4 -10 -10z"/>
<path d="M2530 7230 c0 -5 5 -10 10 -10 6 0 10 5 10 10 0 6 -4 10 -10 10 -5 0
-10 -4 -10 -10z"/>
<path d="M3230 7210 c0 -5 16 -10 36 -10 21 0 33 4 29 10 -3 6 -19 10 -36 10
-16 0 -29 -4 -29 -10z"/>
<path d="M3315 7210 c-3 -5 -2 -10 4 -10 5 0 16 -6 23 -13 11 -11 18 -11 38 0
l25 13 -27 0 c-15 0 -30 5 -33 10 -3 6 -10 10 -15 10 -5 0 -12 -4 -15 -10z"/>
<path d="M2095 7170 c-3 -5 -1 -10 4 -10 6 0 11 5 11 10 0 6 -2 10 -4 10 -3 0
-8 -4 -11 -10z"/>
<path d="M2400 7170 c0 -5 7 -10 16 -10 8 0 12 5 9 10 -3 6 -10 10 -16 10 -5
0 -9 -4 -9 -10z"/>
<path d="M3380 7140 c19 -13 30 -13 30 0 0 6 -10 10 -22 10 -19 0 -20 -2 -8
-10z"/>
<path d="M1585 7130 c-3 -5 -2 -10 4 -10 5 0 13 5 16 10 3 6 2 10 -4 10 -5 0
-13 -4 -16 -10z"/>
<path d="M2205 7130 c3 -5 8 -10 11 -10 2 0 4 5 4 10 0 6 -5 10 -11 10 -5 0
-7 -4 -4 -10z"/>
<path d="M3440 7120 c19 -13 30 -13 30 0 0 6 -10 10 -22 10 -19 0 -20 -2 -8
-10z"/>
<path d="M3120 7095 c0 -3 7 -14 16 -23 15 -14 16 -14 13 3 -4 17 -29 35 -29
20z"/>
<path d="M70 7080 c0 -5 5 -10 11 -10 5 0 7 5 4 10 -3 6 -8 10 -11 10 -2 0 -4
-4 -4 -10z"/>
<path d="M3240 7053 c0 -7 -7 -13 -15 -13 -8 0 -15 -4 -15 -10 0 -5 11 -10 25
-10 27 0 30 7 15 30 -6 10 -10 11 -10 3z"/>
<path d="M3280 7030 c-8 -5 -11 -12 -7 -17 5 -4 11 -3 15 3 4 6 14 14 22 17
13 5 13 5 0 6 -8 0 -22 -3 -30 -9z"/>
<path d="M3230 6980 c-12 -8 -12 -10 -1 -10 8 0 11 -6 7 -16 -4 -10 -2 -14 6
-11 7 2 21 -2 31 -11 24 -21 21 -2 -6 30 -16 20 -26 25 -37 18z"/>
<path d="M3182 6958 c2 -6 10 -14 16 -16 7 -2 10 2 6 12 -7 18 -28 22 -22 4z"/>
<path d="M3357 6943 c-12 -12 -7 -33 8 -33 17 0 19 9 7 28 -5 7 -11 9 -15 5z"/>
<path d="M3590 6930 c0 -5 5 -10 11 -10 5 0 7 5 4 10 -3 6 -8 10 -11 10 -2 0
-4 -4 -4 -10z"/>
<path d="M3330 6905 c0 -8 4 -15 10 -15 5 0 7 7 4 15 -4 8 -8 15 -10 15 -2 0
-4 -7 -4 -15z"/>
<path d="M3291 6887 c-15 -29 -8 -47 19 -47 23 0 35 16 19 25 -6 4 -14 16 -18
27 -7 18 -8 18 -20 -5z"/>
<path d="M40 6889 c0 -5 5 -7 10 -4 6 3 10 8 10 11 0 2 -4 4 -10 4 -5 0 -10
-5 -10 -11z"/>
<path d="M3357 6883 c-4 -3 -7 -11 -7 -17 0 -6 5 -5 12 2 6 6 9 14 7 17 -3 3
-9 2 -12 -2z"/>
<path d="M315 6840 c-3 -5 2 -10 12 -10 11 0 24 -5 31 -12 9 -9 12 -9 12 0 0
6 -9 16 -19 22 -24 12 -28 13 -36 0z"/>
<path d="M590 6816 c0 -2 7 -7 16 -10 8 -3 12 -2 9 4 -6 10 -25 14 -25 6z"/>
<path d="M3372 6796 c6 -14 15 -23 19 -20 15 9 10 23 -11 34 -18 10 -19 9 -8
-14z"/>
<path d="M445 6779 c-4 -6 -5 -12 -2 -15 7 -7 37 7 37 17 0 13 -27 11 -35 -2z"/>
<path d="M680 6781 c0 -6 4 -13 10 -16 6 -3 7 1 4 9 -7 18 -14 21 -14 7z"/>
<path d="M3320 6749 c0 -11 5 -17 10 -14 6 3 10 13 10 21 0 8 -4 14 -10 14 -5
0 -10 -9 -10 -21z"/>
<path d="M170 6750 c-9 -6 -10 -10 -3 -10 6 0 15 5 18 10 8 12 4 12 -15 0z"/>
<path d="M3360 6741 c-10 -21 -4 -51 11 -51 5 0 9 7 9 16 0 9 8 23 18 31 9 8
11 12 5 8 -7 -3 -13 -1 -13 4 0 18 -19 12 -30 -8z"/>
<path d="M694 6738 c-3 -4 6 -8 20 -8 14 0 26 4 26 9 0 11 -39 10 -46 -1z"/>
<path d="M488 6729 c-10 -5 -24 -9 -30 -8 -24 3 -38 -1 -38 -11 0 -13 15 -13
63 1 20 5 37 14 37 19 0 13 -10 12 -32 -1z"/>
<path d="M636 6732 c-6 -10 -2 -39 7 -48 4 -4 7 7 7 24 0 32 -4 39 -14 24z"/>
<path d="M2640 6715 c0 -13 55 -52 67 -48 21 8 15 29 -12 41 -27 13 -55 16
-55 7z"/>
<path d="M100 6700 c0 -5 5 -10 10 -10 6 0 10 5 10 10 0 6 -4 10 -10 10 -5 0
-10 -4 -10 -10z"/>
<path d="M476 6692 c-2 -4 4 -9 15 -9 10 -1 19 2 19 8 0 11 -27 12 -34 1z"/>
<path d="M678 6669 c-25 -14 -23 -24 17 -66 25 -27 35 -32 35 -20 0 9 6 17 13
18 6 1 1 4 -13 8 -21 6 -25 13 -22 39 2 34 -3 37 -30 21z"/>
<path d="M1538 6653 c7 -3 16 -2 19 1 4 3 -2 6 -13 5 -11 0 -14 -3 -6 -6z"/>
<path d="M287 6623 c-4 -3 -7 -11 -7 -17 0 -6 5 -5 12 2 6 6 9 14 7 17 -3 3
-9 2 -12 -2z"/>
<path d="M790 6620 c0 -5 5 -10 10 -10 6 0 10 5 10 10 0 6 -4 10 -10 10 -5 0
-10 -4 -10 -10z"/>
<path d="M900 6619 c0 -5 5 -7 10 -4 6 3 10 8 10 11 0 2 -4 4 -10 4 -5 0 -10
-5 -10 -11z"/>
<path d="M1000 6620 c0 -5 5 -10 11 -10 5 0 7 5 4 10 -3 6 -8 10 -11 10 -2 0
-4 -4 -4 -10z"/>
<path d="M645 6590 c3 -5 8 -10 11 -10 2 0 4 5 4 10 0 6 -5 10 -11 10 -5 0 -7
-4 -4 -10z"/>
<path d="M857 6594 c-8 -8 17 -54 28 -51 18 6 16 32 -4 44 -10 6 -21 10 -24 7z"/>
<path d="M1460 6589 c0 -5 5 -7 10 -4 6 3 10 8 10 11 0 2 -4 4 -10 4 -5 0 -10
-5 -10 -11z"/>
<path d="M1535 6590 c-3 -6 1 -7 9 -4 18 7 21 14 7 14 -6 0 -13 -4 -16 -10z"/>
<path d="M235 6580 c3 -5 8 -10 11 -10 2 0 4 5 4 10 0 6 -5 10 -11 10 -5 0 -7
-4 -4 -10z"/>
<path d="M800 6579 c-13 -8 -13 -10 0 -19 21 -14 30 -12 30 4 0 20 -13 27 -30
15z"/>
<path d="M672 6558 c2 -6 10 -14 16 -16 7 -2 10 2 6 12 -7 18 -28 22 -22 4z"/>
<path d="M1605 6561 c-3 -5 -1 -12 5 -16 5 -3 10 1 10 9 0 18 -6 21 -15 7z"/>
<path d="M1711 6554 c14 -17 32 -19 27 -2 -2 6 -12 12 -22 14 -14 2 -15 0 -5
-12z"/>
<path d="M1122 6520 c0 -19 2 -27 5 -17 2 9 2 25 0 35 -3 9 -5 1 -5 -18z"/>
<path d="M187 6533 c-4 -3 -7 -11 -7 -17 0 -6 5 -5 12 2 6 6 9 14 7 17 -3 3
-9 2 -12 -2z"/>
<path d="M801 6524 c0 -11 3 -14 6 -6 3 7 2 16 -1 19 -3 4 -6 -2 -5 -13z"/>
<path d="M1930 6524 c0 -8 5 -12 10 -9 6 4 8 11 5 16 -9 14 -15 11 -15 -7z"/>
<path d="M2200 6530 c0 -5 5 -10 10 -10 6 0 10 5 10 10 0 6 -4 10 -10 10 -5 0
-10 -4 -10 -10z"/>
<path d="M990 6505 c13 -14 27 -25 32 -25 5 0 -2 11 -16 25 -14 14 -28 25 -32
25 -4 0 3 -11 16 -25z"/>
<path d="M1585 6520 c-3 -5 -1 -10 4 -10 6 0 11 5 11 10 0 6 -2 10 -4 10 -3 0
-8 -4 -11 -10z"/>
<path d="M300 6504 c0 -22 -17 -34 -50 -34 -9 0 -24 -8 -31 -17 -12 -14 -12
-16 0 -8 11 6 13 3 8 -14 -4 -17 -2 -21 10 -17 8 3 19 6 24 6 5 0 14 12 20 26
8 24 11 25 22 11 16 -21 52 -26 52 -7 0 8 -8 14 -17 14 -11 -1 -18 5 -18 15 0
9 -5 23 -10 31 -8 12 -10 11 -10 -6z"/>
<path d="M2266 6513 c6 -4 14 -15 17 -23 5 -11 6 -9 4 4 -1 11 -9 21 -17 23
-10 3 -11 2 -4 -4z"/>
<path d="M2320 6503 c0 -9 3 -13 7 -10 3 4 13 1 21 -6 13 -10 14 -9 3 11 -14
26 -31 29 -31 5z"/>
<path d="M245 6500 c3 -5 13 -10 21 -10 8 0 12 5 9 10 -3 6 -13 10 -21 10 -8
0 -12 -4 -9 -10z"/>
<path d="M1500 6489 c0 -11 4 -18 10 -14 5 3 7 12 3 20 -7 21 -13 19 -13 -6z"/>
<path d="M200 6488 c0 -5 -4 -6 -10 -3 -12 7 -12 -2 0 -30 8 -18 9 -18 9 -2 1
10 8 20 16 23 8 4 15 9 15 13 0 4 -7 8 -15 8 -8 0 -15 -4 -15 -9z"/>
<path d="M1642 6470 c0 -14 2 -19 5 -12 2 6 2 18 0 25 -3 6 -5 1 -5 -13z"/>
<path d="M970 6466 c0 -8 5 -18 10 -21 6 -3 10 3 10 14 0 12 -4 21 -10 21 -5
0 -10 -6 -10 -14z"/>
<path d="M1195 6470 c27 -12 35 -12 35 0 0 6 -12 10 -27 9 -25 0 -26 -1 -8 -9z"/>
<path d="M1400 6469 c0 -5 8 -9 18 -7 9 1 23 -1 30 -5 8 -5 12 -3 12 7 0 11
-9 16 -30 16 -16 0 -30 -5 -30 -11z"/>
<path d="M1535 6470 c3 -5 8 -10 11 -10 2 0 4 5 4 10 0 6 -5 10 -11 10 -5 0
-7 -4 -4 -10z"/>
<path d="M1000 6460 c0 -5 7 -10 16 -10 8 0 12 5 9 10 -3 6 -10 10 -16 10 -5
0 -9 -4 -9 -10z"/>
<path d="M1050 6459 c0 -8 26 -19 46 -19 8 0 14 7 14 15 0 11 -9 15 -30 13
-16 -1 -30 -5 -30 -9z"/>
<path d="M1272 6458 c2 -6 10 -14 16 -16 7 -2 10 2 6 12 -7 18 -28 22 -22 4z"/>
<path d="M1500 6456 c0 -9 32 -36 42 -36 6 0 1 9 -12 20 -23 20 -30 24 -30 16z"/>
<path d="M1768 6453 c7 -3 16 -2 19 1 4 3 -2 6 -13 5 -11 0 -14 -3 -6 -6z"/>
<path d="M1920 6435 c0 -8 5 -15 10 -15 6 0 10 7 10 15 0 8 -4 15 -10 15 -5 0
-10 -7 -10 -15z"/>
<path d="M1873 6429 c14 -8 22 -8 30 0 8 8 3 11 -18 11 -26 -1 -28 -2 -12 -11z"/>
<path d="M150 6416 c0 -9 5 -16 10 -16 6 0 10 4 10 9 0 6 -4 13 -10 16 -5 3
-10 -1 -10 -9z"/>
<path d="M1380 6419 c0 -5 5 -7 10 -4 6 3 10 8 10 11 0 2 -4 4 -10 4 -5 0 -10
-5 -10 -11z"/>
<path d="M1745 6410 c3 -5 8 -10 11 -10 2 0 4 5 4 10 0 6 -5 10 -11 10 -5 0
-7 -4 -4 -10z"/>
<path d="M1226 6393 c-6 -14 -5 -15 5 -6 7 7 10 15 7 18 -3 3 -9 -2 -12 -12z"/>
<path d="M1465 6400 c3 -5 15 -10 25 -10 10 0 22 5 25 10 4 6 -7 10 -25 10
-18 0 -29 -4 -25 -10z"/>
<path d="M1853 6385 c0 -21 2 -23 13 -14 11 9 11 15 3 25 -15 19 -16 18 -16
-11z"/>
<path d="M1392 6375 c0 -16 2 -22 5 -12 2 9 2 23 0 30 -3 6 -5 -1 -5 -18z"/>
<path d="M2010 6390 c0 -5 7 -10 15 -10 8 0 15 5 15 10 0 6 -7 10 -15 10 -8 0
-15 -4 -15 -10z"/>
<path d="M1586 6374 c-20 -20 -20 -24 1 -24 9 0 13 3 10 7 -4 3 -2 12 4 20 16
18 4 16 -15 -3z"/>
<path d="M2115 6370 c11 -37 24 -48 35 -30 5 8 10 22 10 30 0 12 -2 12 -9 2
-6 -11 -12 -10 -26 4 -17 17 -17 17 -10 -6z"/>
<path d="M1885 6361 c-3 -8 1 -24 10 -37 8 -13 15 -32 15 -42 0 -10 3 -21 6
-25 8 -8 34 3 34 15 0 6 -7 8 -15 4 -8 -3 -15 -1 -15 3 0 5 6 11 13 14 9 3 9
7 0 17 -6 7 -9 19 -6 26 3 9 -2 14 -13 15 -16 0 -15 2 4 9 29 12 28 18 -3 16
-14 0 -27 -7 -30 -15z"/>
<path d="M2050 6365 c0 -9 6 -12 15 -9 8 4 15 7 15 9 0 2 -7 5 -15 9 -9 3 -15
0 -15 -9z"/>
<path d="M1160 6347 c-37 -19 -35 -34 5 -29 20 2 35 10 35 18 0 20 -14 24 -40
11z"/>
<path d="M1660 6334 c0 -8 5 -12 10 -9 6 3 10 10 10 16 0 5 -4 9 -10 9 -5 0
-10 -7 -10 -16z"/>
<path d="M2098 6328 c-7 -17 27 -56 39 -45 4 4 0 13 -9 20 -9 6 -18 19 -20 26
-4 12 -5 12 -10 -1z"/>
<path d="M1227 6304 c6 -15 23 -19 23 -5 0 5 -7 11 -14 14 -10 4 -13 1 -9 -9z"/>
<path d="M1445 6311 c-3 -6 7 -13 22 -17 15 -3 35 -8 44 -10 9 -3 16 2 16 11
0 10 -7 13 -24 9 -13 -4 -30 -1 -37 5 -10 8 -16 9 -21 2z"/>
<path d="M1630 6309 c0 -5 5 -7 10 -4 6 3 10 8 10 11 0 2 -4 4 -10 4 -5 0 -10
-5 -10 -11z"/>
<path d="M1576 6302 c-3 -5 3 -17 13 -26 19 -18 28 -13 27 14 -1 17 -31 26
-40 12z"/>
<path d="M1663 6290 c-3 -11 -10 -17 -15 -13 -7 4 -9 -6 -6 -25 2 -17 0 -33
-6 -35 -5 -2 -6 -9 -2 -16 6 -9 12 -7 23 8 8 12 12 25 8 31 -3 5 -3 21 1 35 5
21 9 23 20 14 12 -10 13 -9 8 5 -8 22 -25 20 -31 -4z"/>
<path d="M1315 6280 c-3 -5 -1 -10 4 -10 6 0 11 5 11 10 0 6 -2 10 -4 10 -3 0
-8 -4 -11 -10z"/>
<path d="M1520 6260 c0 -5 8 -10 18 -11 10 0 12 -3 5 -6 -10 -4 -10 -7 0 -18
15 -14 70 -8 61 7 -3 5 -15 6 -27 2 -12 -3 -19 -3 -15 1 4 5 0 14 -10 21 -21
16 -32 17 -32 4z"/>
<path d="M1594 6203 c4 -7 2 -13 -3 -13 -6 0 -11 -7 -11 -15 0 -8 5 -15 10
-15 17 0 24 30 10 43 -10 9 -11 9 -6 0z"/>
<path d="M6910 6178 c0 -12 -16 -35 -40 -55 -40 -34 -50 -53 -29 -53 23 0 67
41 72 67 3 16 9 36 12 46 4 10 3 17 -4 17 -6 0 -11 -10 -11 -22z"/>
<path d="M6790 6160 c-8 -5 -12 -12 -9 -15 4 -3 12 1 19 10 14 17 11 19 -10 5z"/>
<path d="M6920 6105 c0 -8 5 -15 10 -15 6 0 10 7 10 15 0 8 -4 15 -10 15 -5 0
-10 -7 -10 -15z"/>
<path d="M6925 6070 c3 -5 8 -10 11 -10 2 0 4 5 4 10 0 6 -5 10 -11 10 -5 0
-7 -4 -4 -10z"/>
<path d="M6930 6023 c0 -4 5 -15 10 -23 8 -13 10 -13 10 2 0 9 -4 20 -10 23
-5 3 -10 3 -10 -2z"/>
<path d="M7280 5885 c0 -18 19 -40 26 -32 4 4 0 15 -9 24 -9 10 -17 13 -17 8z"/>
<path d="M6950 5834 c0 -8 5 -12 10 -9 6 4 8 11 5 16 -9 14 -15 11 -15 -7z"/>
<path d="M7285 5801 c-3 -5 -1 -12 5 -16 5 -3 10 1 10 9 0 18 -6 21 -15 7z"/>
<path d="M7320 5776 c0 -8 5 -18 10 -21 6 -3 10 1 10 9 0 8 -4 18 -10 21 -5 3
-10 -1 -10 -9z"/>
<path d="M7205 5731 c-3 -5 -1 -12 4 -15 5 -3 11 1 15 9 6 16 -9 21 -19 6z"/>
<path d="M7330 5731 c0 -6 5 -13 10 -16 6 -3 10 1 10 9 0 9 -4 16 -10 16 -5 0
-10 -4 -10 -9z"/>
<path d="M7361 5685 c0 -35 2 -37 11 -19 7 15 7 28 -1 40 -9 16 -10 12 -10
-21z"/>
<path d="M7240 5685 c-1 -5 -2 -21 -2 -35 1 -16 -1 -19 -4 -7 -3 9 -11 17 -19
17 -18 0 -7 -38 15 -50 22 -12 32 17 20 58 -5 15 -9 23 -10 17z"/>
<path d="M7300 5670 c-21 -13 -19 -51 2 -73 18 -17 18 -17 13 6 -4 15 -1 28 9
36 8 7 12 19 9 27 -6 16 -12 17 -33 4z"/>
<path d="M7160 5620 c0 -5 5 -10 10 -10 6 0 10 5 10 10 0 6 -4 10 -10 10 -5 0
-10 -4 -10 -10z"/>
<path d="M7365 5620 c-3 -5 -1 -10 4 -10 6 0 11 5 11 10 0 6 -2 10 -4 10 -3 0
-8 -4 -11 -10z"/>
<path d="M7056 5582 c-3 -6 -1 -14 5 -17 15 -10 25 3 12 16 -7 7 -13 7 -17 1z"/>
<path d="M7290 5572 c0 -15 4 -20 16 -15 9 3 12 9 7 12 -4 3 -11 10 -15 15 -5
5 -8 0 -8 -12z"/>
<path d="M7371 5564 c0 -11 3 -14 6 -6 3 7 2 16 -1 19 -3 4 -6 -2 -5 -13z"/>
<path d="M7335 5530 c-3 -5 -1 -10 4 -10 6 0 11 5 11 10 0 6 -2 10 -4 10 -3 0
-8 -4 -11 -10z"/>
<path d="M7642 5520 c0 -14 2 -19 5 -12 2 6 2 18 0 25 -3 6 -5 1 -5 -13z"/>
<path d="M7390 5450 c0 -5 5 -10 11 -10 5 0 7 5 4 10 -3 6 -8 10 -11 10 -2 0
-4 -4 -4 -10z"/>
<path d="M7400 5368 c0 -12 7 -18 23 -17 15 0 17 2 7 6 -8 3 -18 11 -22 17 -5
7 -8 4 -8 -6z"/>
<path d="M7691 5334 c0 -11 3 -14 6 -6 3 7 2 16 -1 19 -3 4 -6 -2 -5 -13z"/>
<path d="M7280 5308 c0 -36 4 -35 14 5 4 16 2 27 -4 27 -5 0 -10 -14 -10 -32z"/>
<path d="M7390 5271 c0 -25 6 -27 13 -6 4 8 2 17 -3 20 -6 4 -10 -3 -10 -14z"/>
<path d="M7303 5225 c12 -25 37 -42 37 -25 0 6 -4 10 -9 10 -5 0 -13 9 -16 20
-3 11 -10 20 -15 20 -4 0 -3 -11 3 -25z"/>
<path d="M7380 5200 c0 -5 5 -10 10 -10 6 0 10 5 10 10 0 6 -4 10 -10 10 -5 0
-10 -4 -10 -10z"/>
<path d="M7495 5190 c3 -5 8 -10 11 -10 2 0 4 5 4 10 0 6 -5 10 -11 10 -5 0
-7 -4 -4 -10z"/>
<path d="M7342 5086 c1 -15 6 -26 10 -26 12 0 10 38 -2 45 -6 4 -9 -5 -8 -19z"/>
<path d="M7386 5021 c-4 -5 4 -15 16 -22 22 -12 22 -11 8 7 -8 10 -15 20 -16
22 -1 2 -5 -1 -8 -7z"/>
<path d="M7480 5010 c0 -5 5 -10 10 -10 6 0 10 5 10 10 0 6 -4 10 -10 10 -5 0
-10 -4 -10 -10z"/>
<path d="M7292 4930 c-27 -26 -27 -30 -2 -30 11 0 20 7 20 15 0 7 8 19 18 24
14 9 14 10 1 11 -8 0 -25 -9 -37 -20z"/>
<path d="M7535 4940 c3 -5 8 -10 11 -10 2 0 4 5 4 10 0 6 -5 10 -11 10 -5 0
-7 -4 -4 -10z"/>
<path d="M7480 4891 c0 -12 5 -21 10 -21 6 0 10 6 10 14 0 8 -4 18 -10 21 -5
3 -10 -3 -10 -14z"/>
<path d="M7531 4877 c-6 -16 -11 -29 -11 -30 0 -2 11 -4 25 -5 28 -2 32 14 11
44 -14 18 -15 18 -25 -9z"/>
<path d="M7320 4881 c0 -6 4 -13 10 -16 6 -3 7 1 4 9 -7 18 -14 21 -14 7z"/>
<path d="M7290 4858 c0 -7 5 -20 10 -28 8 -12 10 -11 10 7 0 12 -4 25 -10 28
-5 3 -10 0 -10 -7z"/>
<path d="M7582 4798 c-8 -10 -4 -13 14 -14 20 -2 23 1 13 12 -14 17 -14 17
-27 2z"/>
<path d="M7675 4800 c-3 -5 -1 -10 4 -10 6 0 11 5 11 10 0 6 -2 10 -4 10 -3 0
-8 -4 -11 -10z"/>
<path d="M7548 4763 c7 -3 16 -2 19 1 4 3 -2 6 -13 5 -11 0 -14 -3 -6 -6z"/>
<path d="M7587 4753 c-13 -12 -7 -23 13 -23 11 0 20 7 20 15 0 15 -21 21 -33
8z"/>
<path d="M7306 4604 c-9 -23 -8 -24 14 -24 11 0 20 2 20 4 0 12 -13 36 -20 36
-4 0 -11 -7 -14 -16z"/>
<path d="M9661 4584 c0 -11 3 -14 6 -6 3 7 2 16 -1 19 -3 4 -6 -2 -5 -13z"/>
<path d="M3831 4504 c0 -11 3 -14 6 -6 3 7 2 16 -1 19 -3 4 -6 -2 -5 -13z"/>
<path d="M7300 4450 c0 -5 5 -10 10 -10 6 0 10 5 10 10 0 6 -4 10 -10 10 -5 0
-10 -4 -10 -10z"/>
<path d="M7295 4410 c3 -5 18 -10 32 -10 32 0 28 5 -10 14 -19 4 -26 3 -22 -4z"/>
<path d="M9810 4390 c0 -5 5 -10 11 -10 5 0 7 5 4 10 -3 6 -8 10 -11 10 -2 0
-4 -4 -4 -10z"/>
<path d="M7467 4319 c7 -7 15 -10 18 -7 3 3 -2 9 -12 12 -14 6 -15 5 -6 -5z"/>
<path d="M7580 4261 c0 -5 5 -13 10 -16 6 -3 10 -2 10 4 0 5 -4 13 -10 16 -5
3 -10 2 -10 -4z"/>
<path d="M8035 4150 c-4 -6 7 -10 25 -10 18 0 29 4 25 10 -3 6 -15 10 -25 10
-10 0 -22 -4 -25 -10z"/>
<path d="M8120 4132 c0 -14 53 -33 64 -21 8 7 6 8 -7 3 -12 -4 -17 -2 -15 6 2
7 -7 14 -19 16 -13 2 -23 1 -23 -4z"/>
<path d="M8198 4087 c8 -9 24 -19 35 -23 12 -4 56 -29 98 -55 42 -27 81 -49
88 -49 6 0 38 -9 71 -20 57 -19 87 -32 249 -106 41 -19 84 -34 97 -34 25 0
225 -75 293 -109 23 -12 87 -51 141 -86 55 -36 126 -75 157 -89 31 -13 70 -37
87 -53 17 -16 51 -39 75 -52 66 -34 105 -66 153 -129 24 -31 45 -59 48 -62 3
-3 34 -43 69 -90 36 -47 85 -109 110 -139 26 -30 60 -76 76 -102 17 -26 48
-74 70 -106 22 -32 65 -107 96 -166 l56 -108 2 127 c1 99 -3 138 -16 173 -21
56 -29 62 -70 55 -28 -5 -34 -3 -42 19 -5 14 -8 39 -6 56 3 21 0 31 -9 31 -9
0 -13 -13 -12 -37 1 -51 -28 -54 -31 -3 -2 19 -5 53 -7 75 -3 22 -5 45 -5 52
-1 6 -14 14 -31 18 -16 4 -32 11 -35 16 -4 5 -11 9 -17 9 -6 0 -6 -6 2 -15 11
-13 11 -20 0 -40 -15 -28 -34 -23 -25 6 5 14 0 21 -18 28 -32 12 -106 90 -138
143 -13 22 -36 54 -51 71 -16 16 -28 36 -28 44 0 7 -7 16 -15 19 -22 9 -19 35
3 27 13 -4 14 -3 6 6 -6 7 -18 14 -25 15 -8 2 -25 8 -39 13 -14 6 -31 8 -37 6
-7 -3 -16 2 -19 11 -3 9 -13 16 -20 16 -8 0 -17 7 -20 15 -4 8 -11 12 -16 9
-6 -4 -5 2 1 14 17 32 14 44 -8 32 -26 -13 -31 -13 -31 5 0 8 -4 15 -10 15 -5
0 -10 -5 -10 -11 0 -8 -4 -8 -13 0 -8 6 -22 12 -33 14 -37 7 -59 20 -96 55
-21 20 -41 33 -44 29 -4 -3 -19 2 -33 12 -14 10 -34 21 -44 24 -11 4 -21 16
-24 27 -6 22 -23 28 -23 8 0 -6 -13 0 -28 15 -18 17 -41 28 -65 29 -34 3 -43
12 -38 40 0 4 -9 4 -22 -1 -15 -6 -31 -4 -47 5 -14 7 -35 13 -48 14 -12 0 -31
5 -42 10 -11 6 -29 15 -40 20 -11 6 -27 10 -35 10 -8 0 -15 4 -15 10 0 5 -7 7
-15 4 -8 -4 -17 1 -21 10 -4 10 -18 16 -40 16 -19 0 -34 5 -34 10 0 6 -10 10
-21 10 -12 0 -33 12 -46 26 -18 20 -27 23 -37 15 -10 -8 -17 -7 -26 4 -7 8
-23 15 -36 15 -12 0 -25 4 -28 9 -3 4 -24 8 -47 8 -23 0 -44 5 -48 10 -3 6
-16 15 -29 22 -12 7 -20 16 -17 20 2 5 -1 8 -8 8 -21 -2 -97 35 -91 44 3 5 -4
9 -15 9 -10 0 -28 3 -38 7 -16 6 -16 5 -5 -10z m1842 -1061 c0 -27 -12 -46
-29 -46 -19 0 -24 40 -7 52 18 12 36 9 36 -6z m35 -94 c-3 -3 -11 0 -18 7 -9
10 -8 11 6 5 10 -3 15 -9 12 -12z m80 -112 c0 -21 -22 -23 -28 -1 -3 13 0 18
12 16 9 -1 16 -8 16 -15z m82 6 c1 -1 -5 -10 -13 -20 -14 -20 -14 -20 -29 0
-21 28 -18 35 13 28 15 -4 28 -7 29 -8z m23 -85 c0 -5 -7 -12 -16 -15 -10 -4
-13 -13 -9 -26 3 -11 2 -20 -3 -20 -16 0 -19 22 -8 47 11 22 36 32 36 14z m0
-109 c0 -7 -4 -10 -10 -7 -5 3 -10 16 -10 28 0 18 2 19 10 7 5 -8 10 -21 10
-28z"/>
<path d="M3580 4089 c0 -3 14 -31 30 -63 48 -91 111 -183 189 -276 40 -47 98
-116 129 -155 73 -90 156 -170 209 -202 83 -48 62 -10 -57 104 -66 64 -120
122 -120 129 0 8 -4 14 -9 14 -8 0 -42 34 -116 114 -50 53 -157 192 -184 236
-33 54 -71 107 -71 99z"/>
<path d="M9648 4083 c7 -3 16 -2 19 1 4 3 -2 6 -13 5 -11 0 -14 -3 -6 -6z"/>
<path d="M9390 4060 c0 -5 5 -10 10 -10 6 0 10 5 10 10 0 6 -4 10 -10 10 -5 0
-10 -4 -10 -10z"/>
<path d="M9761 4004 c0 -11 3 -14 6 -6 3 7 2 16 -1 19 -3 4 -6 -2 -5 -13z"/>
<path d="M9930 4004 c0 -8 5 -12 10 -9 6 4 8 11 5 16 -9 14 -15 11 -15 -7z"/>
<path d="M10065 4010 c3 -5 8 -10 11 -10 2 0 4 5 4 10 0 6 -5 10 -11 10 -5 0
-7 -4 -4 -10z"/>
<path d="M10178 3973 c7 -3 16 -2 19 1 4 3 -2 6 -13 5 -11 0 -14 -3 -6 -6z"/>
<path d="M4235 3880 c3 -5 8 -10 11 -10 2 0 4 5 4 10 0 6 -5 10 -11 10 -5 0
-7 -4 -4 -10z"/>
<path d="M8908 3823 c7 -3 16 -2 19 1 4 3 -2 6 -13 5 -11 0 -14 -3 -6 -6z"/>
<path d="M4802 3738 c7 -15 15 -23 17 -17 2 6 -4 18 -13 27 -15 15 -15 15 -4
-10z"/>
<path d="M4460 3736 c0 -9 5 -16 10 -16 6 0 10 4 10 9 0 6 -4 13 -10 16 -5 3
-10 -1 -10 -9z"/>
<path d="M4890 3711 c0 -5 12 -14 28 -20 15 -6 36 -25 47 -41 11 -16 21 -27
23 -25 2 2 -6 18 -18 35 -22 31 -80 68 -80 51z"/>
<path d="M4765 3678 c-38 -29 -65 -96 -52 -125 6 -13 14 -23 19 -23 11 0 10 7
-3 32 -7 12 -7 18 -1 14 6 -3 13 0 16 6 3 7 4 4 1 -8 -7 -26 20 -51 60 -56 30
-3 30 -3 8 -16 -19 -10 -28 -10 -52 3 -17 8 -32 15 -36 15 -13 0 -3 -31 21
-59 25 -30 26 -30 62 -16 46 19 117 94 132 141 15 44 -4 77 -56 99 -50 21 -86
19 -119 -7z m155 -72 c0 -13 -10 -31 -21 -42 -22 -19 -22 -19 -10 3 6 12 11
33 11 48 0 15 4 24 10 20 6 -3 10 -16 10 -29z"/>
<path d="M9490 3600 c0 -5 5 -10 10 -10 6 0 10 5 10 10 0 6 -4 10 -10 10 -5 0
-10 -4 -10 -10z"/>
<path d="M10050 3600 c0 -5 5 -10 10 -10 6 0 10 5 10 10 0 6 -4 10 -10 10 -5
0 -10 -4 -10 -10z"/>
<path d="M10070 3530 c0 -5 5 -10 10 -10 6 0 10 5 10 10 0 6 -4 10 -10 10 -5
0 -10 -4 -10 -10z"/>
<path d="M10110 3520 c0 -5 5 -10 10 -10 6 0 10 5 10 10 0 6 -4 10 -10 10 -5
0 -10 -4 -10 -10z"/>
<path d="M4407 3509 c7 -7 15 -10 18 -7 3 3 -2 9 -12 12 -14 6 -15 5 -6 -5z"/>
<path d="M4566 3449 c18 -5 48 -27 69 -50 23 -26 40 -38 46 -32 21 21 -79 94
-126 92 -13 -1 -10 -4 11 -10z"/>
<path d="M9635 3450 c3 -5 8 -10 11 -10 2 0 4 5 4 10 0 6 -5 10 -11 10 -5 0
-7 -4 -4 -10z"/>
<path d="M9761 3324 c0 -11 3 -14 6 -6 3 7 2 16 -1 19 -3 4 -6 -2 -5 -13z"/>
<path d="M9810 3330 c0 -5 5 -10 11 -10 5 0 7 5 4 10 -3 6 -8 10 -11 10 -2 0
-4 -4 -4 -10z"/>
<path d="M10080 3329 c0 -5 5 -7 10 -4 6 3 10 8 10 11 0 2 -4 4 -10 4 -5 0
-10 -5 -10 -11z"/>
<path d="M10250 3320 c0 -11 5 -20 10 -20 6 0 10 9 10 20 0 11 -4 20 -10 20
-5 0 -10 -9 -10 -20z"/>
<path d="M10210 3300 c0 -5 5 -10 11 -10 5 0 7 5 4 10 -3 6 -8 10 -11 10 -2 0
-4 -4 -4 -10z"/>
<path d="M4708 3218 c7 -7 12 -19 12 -27 1 -9 23 -34 51 -56 27 -22 59 -48 71
-57 31 -27 58 -23 58 7 0 19 -10 30 -42 46 -24 12 -46 27 -51 34 -7 12 -93 65
-105 65 -3 0 -1 -5 6 -12z"/>
<path d="M10205 3201 c-10 -12 -13 -28 -9 -50 6 -31 7 -31 21 -11 8 11 11 25
8 30 -4 6 5 10 19 10 18 0 26 5 26 18 0 23 -44 25 -65 3z"/>
<path d="M10140 3195 c0 -9 6 -12 15 -9 8 4 15 7 15 9 0 2 -7 5 -15 9 -9 3
-15 0 -15 -9z"/>
<path d="M10108 3163 c-21 -2 -38 -8 -38 -12 0 -12 83 -6 88 7 2 7 0 11 -5 10
-4 -1 -25 -3 -45 -5z"/>
<path d="M9970 3140 c0 -5 5 -10 10 -10 6 0 10 5 10 10 0 6 -4 10 -10 10 -5 0
-10 -4 -10 -10z"/>
<path d="M10021 3141 c-7 -5 -9 -11 -5 -14 5 -3 15 1 22 9 14 16 5 18 -17 5z"/>
<path d="M9925 3130 c-3 -5 -1 -10 4 -10 6 0 11 5 11 10 0 6 -2 10 -4 10 -3 0
-8 -4 -11 -10z"/>
<path d="M10065 3120 c3 -5 8 -10 11 -10 2 0 4 5 4 10 0 6 -5 10 -11 10 -5 0
-7 -4 -4 -10z"/>
<path d="M10124 3093 c-26 -5 -37 -38 -18 -54 7 -6 12 -16 11 -21 -1 -6 4 -13
12 -16 10 -3 12 0 8 11 -3 9 -1 19 5 23 7 5 2 11 -13 17 l-24 10 23 4 c12 3
22 11 22 19 0 8 -1 13 -2 13 -2 -1 -13 -4 -24 -6z"/>
<path d="M4750 3061 c0 -5 5 -13 10 -16 6 -3 10 -2 10 4 0 5 -4 13 -10 16 -5
3 -10 2 -10 -4z"/>
<path d="M4875 3041 c-2 -5 4 -16 15 -26 11 -10 17 -22 14 -26 -3 -5 2 -9 11
-9 9 0 14 4 11 9 -8 12 21 34 34 26 19 -12 31 6 14 22 -15 15 -17 15 -26 -1
-7 -13 -13 -15 -17 -7 -9 14 -49 23 -56 12z"/>
<path d="M10225 3040 c-3 -5 -1 -10 4 -10 6 0 11 5 11 10 0 6 -2 10 -4 10 -3
0 -8 -4 -11 -10z"/>
<path d="M4780 3036 c0 -15 22 -58 27 -53 3 4 26 -11 49 -33 72 -66 70 -45 -1
25 -63 61 -75 71 -75 61z"/>
<path d="M4975 2957 c-30 -18 -45 -41 -34 -51 6 -6 13 -6 21 2 7 7 43 12 91
12 58 0 78 3 74 13 -2 6 -21 12 -42 13 -21 0 -41 6 -43 12 -5 15 -41 14 -67
-1z"/>
<path d="M10180 2941 c0 -11 -6 -22 -12 -24 -8 -3 -6 -6 5 -6 12 -1 17 7 17
24 0 14 -2 25 -5 25 -3 0 -5 -9 -5 -19z"/>
<path d="M5145 2920 c-3 -4 10 -10 28 -13 33 -5 45 -2 35 9 -10 9 -58 12 -63
4z"/>
<path d="M5266 2643 c-4 -4 10 -12 31 -18 30 -8 42 -19 58 -50 11 -22 21 -42
23 -44 1 -2 5 -1 8 2 11 11 -18 67 -48 92 -29 25 -58 32 -72 18z"/>
<path d="M5266 2552 c3 -48 2 -46 19 -32 9 7 15 8 15 2 0 -5 7 -13 15 -16 13
-5 15 0 9 32 -8 44 -3 38 -35 45 -24 6 -26 5 -23 -31z"/>
<path d="M213 2572 c-6 -4 -7 -15 -2 -27 4 -11 8 -14 8 -7 1 7 6 10 11 7 6 -3
10 1 10 9 0 18 -12 27 -27 18z"/>
<path d="M5200 2527 c0 -42 36 -94 72 -101 17 -3 34 -6 38 -6 13 0 70 51 70
62 0 6 -8 0 -19 -13 -17 -21 -22 -22 -66 -13 -44 8 -51 14 -72 53 -20 39 -23
41 -23 18z"/>
<path d="M500 2213 c0 -5 7 -18 15 -29 13 -18 14 -18 8 4 -5 22 -23 41 -23 25z"/>
<path d="M542 2115 c6 -14 15 -25 19 -25 5 0 15 -16 23 -35 8 -19 23 -38 33
-42 19 -7 39 -31 63 -75 56 -103 435 -509 587 -628 45 -36 60 -55 74 -95 11
-33 14 -54 8 -62 -10 -12 -68 -11 -88 1 -18 11 -13 -9 7 -26 9 -9 36 -25 58
-36 27 -14 43 -29 46 -45 5 -24 -7 -28 -42 -14 -8 3 -34 11 -57 17 -67 17
-195 93 -242 144 -14 14 -35 26 -48 26 -13 0 -23 4 -23 9 0 5 -10 11 -22 15
-18 5 -20 8 -9 15 11 7 11 10 0 17 -39 24 -164 84 -176 84 -7 0 -13 4 -13 8 0
5 -25 22 -55 38 -75 39 -125 96 -125 142 0 11 -12 31 -27 44 -16 12 -36 37
-47 53 -10 17 -56 66 -101 110 -46 44 -100 106 -120 138 -36 54 -55 70 -55 46
0 -7 8 -18 18 -26 9 -8 11 -12 4 -8 -7 4 -12 0 -12 -9 0 -9 6 -16 14 -16 7 0
16 -13 19 -28 3 -17 39 -62 86 -113 45 -46 81 -89 81 -95 0 -5 13 -23 29 -38
18 -18 28 -36 26 -48 -3 -13 7 -29 28 -46 18 -15 43 -40 57 -55 32 -37 104
-87 124 -87 9 0 16 -4 16 -8 0 -4 20 -18 46 -30 25 -12 43 -26 40 -31 -3 -5 2
-12 12 -15 30 -11 62 -33 56 -38 -11 -12 194 -139 386 -241 103 -54 182 -117
148 -117 -9 0 -19 6 -21 13 -4 10 -6 10 -6 0 -1 -7 -8 -13 -16 -13 -19 0 -19
-14 -1 -29 11 -9 15 -9 18 1 3 8 6 6 11 -5 3 -9 2 -19 -2 -22 -10 -6 -98 40
-127 66 -11 10 -30 19 -42 19 -12 0 -22 6 -22 14 0 7 -12 21 -26 31 -22 14
-28 15 -36 4 -8 -11 -9 -10 -4 3 3 11 -2 19 -14 23 -10 3 -46 24 -79 45 -34
22 -64 40 -67 40 -6 0 -134 85 -154 103 -28 25 -78 57 -89 57 -7 0 -33 21 -59
46 -26 25 -59 52 -74 60 -16 8 -28 18 -28 23 0 14 -147 131 -155 123 -5 -4 -5
-2 -1 5 11 19 -16 53 -43 53 -20 0 -21 -2 -11 -15 10 -12 10 -15 -4 -15 -9 0
-16 -4 -16 -9 0 -15 32 -36 54 -36 12 0 21 -5 21 -12 0 -6 16 -29 35 -49 19
-21 42 -50 51 -64 14 -23 143 -124 268 -210 28 -19 74 -51 101 -72 27 -20 136
-80 242 -133 167 -84 340 -189 359 -217 9 -14 -2 -58 -14 -58 -6 0 -19 8 -30
18 -19 17 -20 16 -13 -10 3 -16 3 -28 -1 -28 -17 0 -34 18 -31 31 2 10 -7 14
-31 15 -19 1 -39 8 -46 17 -6 9 -23 19 -38 22 -15 4 -27 11 -27 15 0 5 -14 15
-30 24 -20 9 -28 10 -24 3 3 -7 -3 -2 -13 11 -10 13 -35 25 -56 29 -20 3 -37
9 -37 14 0 4 -9 10 -19 14 -10 3 -21 15 -24 25 -5 19 -41 28 -50 13 -2 -5 -3
-3 -1 4 3 15 -28 43 -48 43 -9 0 -22 7 -29 17 -8 9 -32 24 -54 34 -23 10 -53
28 -68 41 -14 13 -43 32 -64 43 -21 10 -67 42 -103 70 -36 28 -78 60 -95 70
-16 11 -46 35 -66 55 -19 19 -67 65 -106 101 -39 37 -74 77 -78 90 -4 13 -21
37 -36 53 -16 17 -29 35 -29 41 0 7 -11 17 -25 23 -23 11 -25 10 -25 -13 0
-14 6 -25 13 -25 9 0 9 -2 -1 -9 -21 -13 5 -96 39 -125 16 -14 29 -29 29 -35
0 -6 31 -41 68 -78 149 -148 291 -252 502 -368 58 -32 132 -74 165 -95 33 -20
107 -62 165 -93 144 -78 305 -196 306 -225 1 -18 -2 -21 -20 -16 -11 4 -24 11
-27 16 -3 5 -44 20 -90 33 -103 29 -144 44 -189 73 -31 19 -58 27 -82 23 -5 0
-8 4 -8 9 0 6 -6 10 -14 10 -8 0 -44 19 -82 41 -37 23 -74 42 -81 43 -8 1 -18
8 -22 15 -4 7 -30 24 -57 37 -42 22 -62 26 -147 26 -75 1 -101 -2 -108 -13
-11 -18 -7 -30 16 -43 11 -6 25 -17 33 -23 15 -15 38 -17 46 -5 3 5 15 8 28 6
34 -4 35 -5 13 -13 -17 -7 -15 -10 16 -19 20 -5 51 -8 69 -6 29 4 68 -9 80
-26 7 -10 164 -84 173 -82 4 1 21 -5 37 -13 16 -9 85 -33 152 -55 113 -37 162
-60 129 -60 -24 0 8 -28 39 -35 57 -12 142 -85 100 -85 -5 0 -10 4 -10 9 0 5
-31 7 -70 6 -38 -1 -67 1 -64 6 3 5 -4 9 -15 9 -14 0 -19 -5 -15 -15 6 -15 17
-19 41 -16 19 3 6 -22 -23 -43 -19 -13 -29 -15 -37 -7 -6 6 -23 11 -38 11 -16
0 -45 10 -65 22 -23 14 -55 22 -82 23 -27 0 -47 5 -49 13 -3 6 4 12 14 12 13
1 10 5 -12 17 -16 9 -35 22 -43 29 -16 16 -22 18 -22 4 0 -5 10 -18 22 -30 12
-11 19 -22 16 -26 -4 -3 1 -14 10 -24 10 -10 28 -32 41 -49 14 -17 34 -31 45
-31 49 -1 82 -6 93 -13 6 -4 14 -1 17 5 5 10 7 10 12 0 4 -8 10 -10 17 -4 8 6
41 4 87 -5 41 -8 83 -15 92 -17 10 -1 21 -5 24 -9 4 -4 17 -7 30 -7 19 0 78
-37 64 -40 -34 -7 -66 -7 -75 -1 -5 5 -30 12 -55 15 -145 20 -180 27 -180 37
0 5 -12 9 -27 8 -26 0 -26 -1 -9 -12 10 -7 31 -25 45 -41 14 -16 40 -42 57
-58 24 -22 30 -34 26 -58 -4 -25 -9 -30 -33 -30 -15 0 -31 4 -34 10 -3 5 -16
10 -29 10 -12 0 -27 5 -34 12 -8 8 -15 8 -26 -1 -9 -7 -27 -10 -43 -7 -30 6
-63 -8 -49 -21 4 -4 254 -9 556 -11 543 -3 549 -3 569 17 22 22 29 71 11 71
-5 0 -10 -9 -10 -21 0 -11 -4 -17 -10 -14 -15 9 -13 75 3 75 8 1 7 4 -3 13
-19 16 -25 47 -8 47 9 1 8 4 -3 13 -10 8 -19 36 -24 73 l-7 61 31 11 c17 6 31
16 31 22 0 8 -6 8 -20 0 -16 -9 -22 -8 -26 5 -3 8 -13 15 -20 15 -20 0 -30 30
-14 40 11 7 10 14 -4 35 -17 26 -17 28 4 50 l22 23 -21 11 c-12 7 -21 18 -21
26 0 7 -5 17 -12 21 -6 4 -8 3 -5 -4 4 -5 -6 -21 -21 -34 -15 -13 -31 -31 -35
-41 -7 -19 -38 -22 -68 -7 -14 8 -19 7 -19 -2 0 -6 -7 -3 -15 8 -8 10 -15 34
-15 52 0 22 -5 32 -16 32 -24 0 -11 23 16 27 28 4 40 13 18 13 -17 0 -28 29
-28 78 0 22 5 32 15 32 8 0 15 -7 15 -15 0 -8 9 -15 21 -15 16 0 19 4 13 23
-9 31 -8 31 -60 16 -30 -9 -50 -22 -57 -36 -6 -13 -16 -23 -23 -23 -14 0 -27
-28 -18 -41 3 -5 0 -9 -6 -9 -19 0 -36 -24 -47 -65 -10 -37 -11 -38 -12 -10
-1 53 60 207 93 235 9 7 16 18 16 25 0 8 4 15 8 17 20 8 53 72 90 173 56 154
66 191 58 212 -8 19 -5 29 6 26 9 -3 21 37 13 45 -4 4 -11 -1 -16 -11 -7 -11
-17 -16 -29 -12 -10 3 -21 1 -25 -5 -4 -6 -20 -8 -38 -5 -18 3 -39 1 -47 -4
-13 -9 -12 -12 3 -24 17 -12 17 -14 3 -26 -8 -7 -20 -10 -27 -6 -8 6 -8 2 1
-14 6 -12 10 -34 8 -48 l-3 -25 -28 26 c-15 14 -25 31 -22 36 10 15 -4 30 -21
23 -17 -6 -16 -57 1 -98 8 -20 8 -20 -13 -1 -22 19 -22 19 -22 -5 0 -31 -13
-51 -31 -47 -11 2 -14 -11 -14 -59 0 -53 -3 -63 -20 -69 -31 -11 -40 -10 -41
4 -1 6 -2 16 -3 21 0 5 -10 13 -21 16 -15 5 -20 14 -18 37 1 18 -3 33 -10 36
-6 2 -12 18 -12 35 -1 18 -8 59 -16 92 -8 33 -24 94 -34 135 -10 41 -25 98
-33 125 l-15 50 -1 -50 c0 -27 4 -71 8 -97 4 -27 4 -48 -1 -48 -4 0 -8 -7 -8
-16 0 -9 5 -12 12 -8 7 4 8 3 4 -4 -4 -7 14 -73 40 -147 40 -118 45 -139 35
-163 -13 -31 -3 -71 27 -107 29 -34 42 -64 42 -94 0 -16 9 -51 20 -77 21 -47
17 -64 -15 -64 -5 0 -4 4 4 9 9 6 10 11 2 15 -6 4 -18 23 -26 42 -8 19 -19 34
-26 34 -6 0 -9 7 -6 15 4 8 2 17 -2 20 -5 2 -18 26 -30 51 -12 25 -25 43 -28
40 -4 -4 -1 -12 5 -18 7 -7 12 -19 12 -27 0 -12 -4 -10 -14 5 -18 25 -23 65
-12 83 6 9 5 12 0 8 -6 -3 -15 3 -22 13 -6 11 -8 21 -3 24 5 3 12 18 15 32 5
20 1 33 -15 50 -12 13 -30 47 -41 76 -19 54 -33 103 -22 80 3 -6 10 -10 14 -7
13 8 -10 64 -31 76 -10 5 -19 18 -19 27 0 10 -5 23 -12 30 -8 8 -8 12 -1 12 6
0 13 -7 17 -15 5 -13 9 -13 26 -3 21 13 21 13 -3 34 -44 37 -60 70 -47 94 9
18 3 31 -44 99 -30 43 -62 84 -70 91 -9 7 -13 17 -9 23 3 6 1 7 -5 3 -6 -4
-17 2 -24 14 -7 11 -16 20 -20 20 -6 0 11 -46 71 -189 36 -86 36 -87 14 -95
-11 -5 -22 -1 -30 10 -7 10 -13 14 -13 10 0 -5 -7 -3 -15 4 -9 7 -14 19 -11
25 5 13 -133 155 -151 155 -6 0 -28 19 -48 43 -21 23 -72 79 -114 123 -91 98
-167 185 -206 239 -31 43 -109 120 -137 136 -16 9 -17 7 -6 -16z m358 -855 c0
-5 -2 -10 -4 -10 -3 0 -8 5 -11 10 -3 6 -1 10 4 10 6 0 11 -4 11 -10z m735
-368 c-3 -8 -5 -19 -5 -25 0 -18 -29 27 -30 46 0 15 3 15 20 5 11 -7 18 -19
15 -26z m65 -86 c0 -3 -4 -8 -10 -11 -5 -3 -10 -1 -10 4 0 6 5 11 10 11 6 0
10 -2 10 -4z m-33 -58 c-3 -8 -6 -5 -6 6 -1 11 2 17 5 13 3 -3 4 -12 1 -19z
m-217 -108 c0 -5 -4 -10 -9 -10 -6 0 -13 5 -16 10 -3 6 1 10 9 10 9 0 16 -4
16 -10z m544 -181 c-3 -6 -1 -15 6 -19 18 -11 18 -74 0 -77 -12 -3 -16 8 -18
52 -1 34 2 55 8 55 6 0 8 -5 4 -11z m-34 -111 c0 -12 8 -16 29 -16 15 1 33 -2
40 -6 16 -10 14 -56 -4 -62 -8 -4 -15 -11 -15 -16 0 -6 6 -8 14 -5 20 8 34
-11 28 -39 -4 -24 -5 -24 -23 -8 -11 9 -19 23 -19 31 0 7 -7 16 -15 19 -8 4
-15 15 -15 25 0 10 -3 19 -7 19 -14 0 -43 61 -43 88 0 25 1 25 15 6 8 -10 15
-27 15 -36z m-850 -52 c0 -3 -4 -8 -10 -11 -5 -3 -10 -1 -10 4 0 6 5 11 10 11
6 0 10 -2 10 -4z m747 -138 c-3 -8 -6 -5 -6 6 -1 11 2 17 5 13 3 -3 4 -12 1
-19z m255 -41 c4 -7 7 -23 7 -37 -1 -22 -2 -21 -10 8 -9 30 -29 45 -29 21 0
-5 -4 -7 -10 -4 -17 10 -11 21 12 22 12 1 26 -3 30 -10z"/>
<path d="M932 2006 c10 -7 16 -15 13 -17 -2 -3 12 -22 31 -44 20 -22 32 -33
28 -25 -4 8 -14 21 -21 30 -7 8 -12 17 -11 20 4 13 -25 50 -40 50 -16 -1 -16
-1 0 -14z"/>
<path d="M1020 1908 c0 -3 31 -37 68 -76 38 -39 75 -84 82 -101 9 -23 17 -30
30 -26 25 8 67 -10 95 -41 14 -15 25 -21 25 -14 0 18 -136 149 -201 194 -30
20 -64 44 -76 53 -13 8 -23 13 -23 11z"/>
<path d="M410 1860 c0 -5 5 -10 10 -10 6 0 10 5 10 10 0 6 -4 10 -10 10 -5 0
-10 -4 -10 -10z"/>
<path d="M442 1820 c15 -23 35 -33 50 -24 12 8 -29 43 -50 44 -10 0 -10 -4 0
-20z"/>
<path d="M970 1770 c0 -14 89 -70 111 -70 10 0 20 -4 23 -9 6 -9 46 -22 46
-15 0 3 -21 15 -47 26 -27 11 -67 34 -90 50 -24 16 -43 24 -43 18z"/>
<path d="M110 1691 c0 -6 5 -13 10 -16 6 -3 10 1 10 9 0 9 -4 16 -10 16 -5 0
-10 -4 -10 -9z"/>
<path d="M160 1683 c0 -4 5 -15 10 -23 8 -13 10 -13 10 2 0 9 -4 20 -10 23 -5
3 -10 3 -10 -2z"/>
<path d="M190 1669 c0 -14 38 -44 46 -36 2 2 -7 14 -21 27 -17 16 -25 19 -25
9z"/>
<path d="M1436 1618 c4 -18 7 -52 7 -76 -1 -33 2 -40 11 -33 7 6 11 25 9 43
-9 74 -14 98 -24 98 -7 0 -8 -12 -3 -32z"/>
<path d="M109 1620 c-7 -5 -10 -12 -6 -17 5 -4 12 -1 17 7 7 10 10 11 10 3 0
-7 5 -13 10 -13 6 0 10 4 10 9 0 14 -25 20 -41 11z"/>
<path d="M0 1425 c0 -26 9 -65 20 -87 11 -23 20 -47 20 -53 0 -7 9 -20 20 -30
11 -10 20 -26 20 -37 0 -10 5 -18 10 -18 6 0 13 -8 17 -17 3 -10 23 -41 44
-70 22 -29 39 -56 39 -61 0 -17 59 -20 62 -4 2 9 24 -7 61 -43 52 -51 58 -55
73 -41 9 9 20 14 25 11 5 -4 9 -1 9 4 0 6 -6 11 -14 11 -8 0 -53 38 -100 85
-47 47 -90 85 -95 85 -12 0 -61 63 -61 77 0 6 -7 17 -16 24 -22 18 -77 106
-102 162 -12 26 -23 47 -26 47 -3 0 -6 -20 -6 -45z m230 -325 c0 -5 -4 -10 -9
-10 -6 0 -13 5 -16 10 -3 6 1 10 9 10 9 0 16 -4 16 -10z m140 -110 c0 -5 -2
-10 -4 -10 -3 0 -8 5 -11 10 -3 6 -1 10 4 10 6 0 11 -4 11 -10z"/>
<path d="M743 1427 c2 -7 57 -39 123 -72 66 -33 136 -73 157 -89 45 -34 65
-25 22 10 -16 14 -29 28 -28 33 1 5 -12 14 -29 20 -17 6 -52 23 -77 38 -60 35
-173 75 -168 60z"/>
<path d="M1396 1398 c16 -18 33 -37 38 -43 4 -5 3 1 -4 15 -17 33 -41 60 -53
60 -6 0 2 -15 19 -32z"/>
<path d="M9137 1334 c-21 -20 -40 -34 -43 -31 -5 5 -64 -47 -64 -56 0 -4 -11
-18 -25 -33 -22 -24 -30 -24 -26 -1 0 4 -4 7 -10 7 -5 0 -9 -8 -7 -17 1 -10
-11 -40 -26 -66 -35 -59 -86 -182 -86 -207 0 -17 -37 -90 -46 -90 -8 0 6 120
21 180 46 180 44 201 -9 96 -21 -42 -25 -45 -29 -25 -10 57 -6 -188 5 -251 12
-68 12 -69 24 -40 7 16 32 42 56 59 55 38 71 54 181 181 l90 105 -69 -67 c-38
-38 -74 -68 -79 -68 -6 -1 -26 -14 -45 -30 -19 -17 -43 -30 -55 -30 -20 1 -20
1 1 18 24 20 41 62 25 62 -17 0 8 57 41 92 17 18 57 65 89 104 32 40 71 82 87
96 25 21 48 48 40 48 -2 0 -20 -16 -41 -36z"/>
<path d="M1725 1350 c3 -5 8 -10 11 -10 2 0 4 5 4 10 0 6 -5 10 -11 10 -5 0
-7 -4 -4 -10z"/>
<path d="M1700 1340 c0 -5 5 -10 11 -10 5 0 7 5 4 10 -3 6 -8 10 -11 10 -2 0
-4 -4 -4 -10z"/>
<path d="M1200 1239 c0 -13 46 -59 60 -59 5 0 10 6 10 13 -1 14 -70 61 -70 46z"/>
<path d="M1290 1176 c0 -9 7 -16 16 -16 9 0 14 5 12 12 -6 18 -28 21 -28 4z"/>
<path d="M1670 1123 c0 -12 5 -25 10 -28 13 -8 13 15 0 35 -8 12 -10 11 -10
-7z"/>
<path d="M65 1080 c6 -9 0 -11 -24 -5 -30 6 -46 -8 -18 -18 9 -3 9 -7 -1 -20
-11 -13 -10 -16 9 -22 27 -9 53 -29 109 -86 40 -41 137 -109 153 -109 14 0 6
21 -10 27 -9 3 -32 25 -52 47 -20 23 -48 52 -62 66 -14 14 -34 37 -43 53 -10
15 -25 27 -32 27 -8 0 -14 9 -14 19 0 11 -5 23 -12 27 -7 5 -8 3 -3 -6z m0
-50 c3 -6 -1 -7 -9 -4 -18 7 -21 14 -7 14 6 0 13 -4 16 -10z m45 -40 c0 -5 -4
-10 -10 -10 -5 0 -10 5 -10 10 0 6 5 10 10 10 6 0 10 -4 10 -10z"/>
<path d="M5233 1053 c-36 -7 -73 -59 -72 -101 1 -53 21 -103 51 -125 31 -23
93 -15 109 14 9 17 6 19 -25 19 -69 0 -116 42 -116 105 0 37 42 76 80 73 44
-3 81 -37 86 -78 5 -45 14 -51 14 -9 0 19 -7 45 -16 57 -15 22 -65 53 -81 51
-4 -1 -18 -4 -30 -6z"/>
<path d="M5234 976 c3 -12 6 -29 6 -38 0 -14 8 -18 35 -18 41 0 46 16 10 30
-14 5 -25 15 -25 21 0 8 4 8 13 1 8 -7 18 -7 27 -2 21 13 5 24 -36 26 -31 1
-35 -2 -30 -20z"/>
<path d="M403 902 c-3 -7 -4 -15 -2 -17 10 -9 152 -9 155 0 11 30 -142 47
-153 17z"/>
<path d="M1967 886 c-6 -15 1 -26 15 -26 11 0 10 27 -1 34 -5 3 -11 0 -14 -8z"/>
<path d="M9076 835 c-11 -8 -15 -15 -9 -15 6 0 16 7 23 15 16 19 11 19 -14 0z"/>
<path d="M2070 810 c-8 -5 -28 -10 -43 -10 -16 0 -37 -5 -48 -10 -23 -13 -26
-60 -4 -60 8 0 19 -9 25 -20 13 -24 34 -17 48 16 7 13 23 29 37 36 14 6 25 17
25 25 0 7 5 13 10 13 6 0 10 5 10 10 0 13 -40 13 -60 0z"/>
<path d="M9015 810 c-19 -8 -19 -9 2 -9 12 -1 25 4 28 9 7 12 -2 12 -30 0z"/>
<path d="M330 794 c0 -16 88 -64 93 -51 5 16 -22 36 -48 37 -12 0 -26 5 -33
12 -7 7 -12 8 -12 2z"/>
<path d="M200 752 c0 -4 -20 -6 -45 -4 -36 3 -45 1 -45 -12 0 -10 9 -16 24
-16 14 0 32 -7 41 -16 9 -10 27 -18 39 -19 13 -2 33 -8 44 -14 11 -6 31 -11
44 -11 19 0 23 5 23 30 0 17 -5 30 -12 30 -7 0 -13 8 -13 19 0 14 -6 17 -26
13 -17 -3 -23 -9 -19 -19 4 -11 1 -13 -11 -9 -8 3 -18 6 -20 6 -2 0 -4 7 -4
15 0 8 -4 15 -10 15 -5 0 -10 -3 -10 -8z m95 -42 c3 -5 2 -10 -4 -10 -5 0 -13
5 -16 10 -3 6 -2 10 4 10 5 0 13 -4 16 -10z"/>
<path d="M8800 748 c-5 -7 -19 -24 -30 -38 -19 -25 -19 -25 -20 -3 0 17 -8 25
-32 31 -19 5 -38 5 -44 0 -7 -5 -17 -7 -24 -6 -6 2 -17 -5 -23 -14 -9 -14 -7
-22 13 -43 13 -14 32 -25 41 -25 21 0 39 -29 39 -61 0 -13 9 -41 20 -64 22
-46 15 -102 -12 -97 -22 4 -36 -43 -44 -147 -5 -61 -3 -90 5 -95 6 -4 11 -2
11 4 0 16 39 -14 61 -47 12 -18 19 -46 19 -80 l0 -53 50 0 c28 0 50 2 50 4 0
2 -6 19 -14 37 -20 49 -26 127 -11 133 7 2 11 15 8 30 -5 25 10 49 35 54 6 1
12 -2 12 -8 0 -5 -4 -10 -10 -10 -5 0 -10 -8 -10 -17 1 -14 6 -11 24 11 30 36
26 48 -34 111 -56 60 -68 85 -40 85 11 0 20 -7 20 -15 0 -8 13 -21 29 -30 16
-8 31 -19 33 -24 4 -12 108 -53 108 -43 0 4 -6 14 -12 21 -7 6 -13 28 -13 48
0 32 -4 38 -29 44 -15 4 -36 14 -45 22 -9 8 -27 18 -41 22 -57 18 -104 76 -49
62 19 -5 26 7 10 17 -5 3 -7 15 -4 26 3 13 -1 22 -12 26 -9 4 -13 10 -8 13 4
3 21 20 36 38 24 26 28 37 22 62 -6 27 -11 31 -40 31 -19 0 -39 -6 -45 -12z
m125 -328 c3 -5 1 -10 -4 -10 -6 0 -11 5 -11 10 0 6 2 10 4 10 3 0 8 -4 11
-10z m55 -50 c0 -5 -5 -10 -11 -10 -5 0 -7 5 -4 10 3 6 8 10 11 10 2 0 4 -4 4
-10z"/>
<path d="M13 733 c-21 -7 -15 -31 9 -39 13 -4 27 -13 33 -20 13 -17 65 -30 65
-15 0 6 7 8 15 5 9 -4 15 0 15 10 0 9 -6 16 -14 16 -8 0 -22 7 -31 16 -17 18
-72 33 -92 27z"/>
<path d="M9040 724 c-23 -12 -23 -14 -4 -14 11 0 29 7 40 15 25 19 -1 19 -36
-1z"/>
<path d="M342 675 c-1 -14 3 -25 8 -25 6 0 10 7 10 15 0 8 5 15 11 15 6 0 9
-7 5 -15 -6 -17 19 -45 40 -45 8 0 14 -4 14 -10 0 -5 6 -10 14 -10 7 0 24 -8
37 -18 15 -12 49 -21 93 -25 62 -6 67 -5 50 8 -10 8 -34 15 -51 15 -18 0 -33
4 -33 9 0 13 -50 20 -50 7 -1 -6 -13 4 -29 22 -15 17 -37 32 -49 32 -14 0 -20
5 -16 13 4 10 -32 37 -49 37 -2 0 -4 -11 -5 -25z"/>
<path d="M1920 672 c0 -14 39 -46 47 -38 4 3 -3 15 -15 26 -23 22 -32 25 -32
12z"/>
<path d="M730 666 c0 -2 7 -6 15 -10 8 -3 15 -1 15 4 0 6 -7 10 -15 10 -8 0
-15 -2 -15 -4z"/>
<path d="M2324 625 c8 -8 18 -15 22 -15 3 0 1 7 -6 15 -7 8 -17 15 -22 15 -5
0 -3 -7 6 -15z"/>
<path d="M0 611 c0 -14 5 -18 20 -14 25 7 25 10 0 23 -17 9 -20 8 -20 -9z"/>
<path d="M690 619 c0 -17 234 -118 246 -106 10 10 -7 29 -23 23 -8 -3 -11 -1
-8 4 5 9 -28 27 -90 50 -11 4 -33 13 -50 20 -39 16 -75 21 -75 9z"/>
<path d="M2027 624 c-11 -11 -8 -44 3 -44 15 0 24 30 13 41 -5 5 -12 6 -16 3z"/>
<path d="M9014 573 c-17 -13 -15 -14 21 -7 68 12 85 21 39 21 -22 0 -49 -6
-60 -14z"/>
<path d="M2340 540 c0 -12 -7 -20 -17 -21 -11 0 -13 -3 -5 -6 6 -2 12 -12 12
-20 0 -13 3 -13 15 -3 12 10 15 10 15 -4 0 -9 5 -16 10 -16 13 0 13 46 0 71
-14 25 -30 24 -30 -1z"/>
<path d="M956 523 c-16 -16 -4 -33 23 -33 16 0 34 -7 41 -15 7 -8 20 -15 29
-15 9 0 26 -7 38 -15 21 -15 22 -14 20 12 -2 21 -8 28 -24 28 -11 1 -28 6 -36
13 -9 7 -26 14 -39 16 -13 1 -29 5 -35 9 -5 3 -13 4 -17 0z"/>
<path d="M656 512 c-3 -6 1 -13 10 -16 23 -9 28 -2 10 13 -8 7 -17 8 -20 3z"/>
<path d="M2280 490 c0 -5 5 -10 11 -10 5 0 7 5 4 10 -3 6 -8 10 -11 10 -2 0
-4 -4 -4 -10z"/>
<path d="M767 463 c-15 -14 -5 -22 46 -38 28 -10 67 -27 86 -38 30 -18 33 -18
30 -2 -4 17 -38 39 -111 69 -41 18 -42 18 -51 9z"/>
<path d="M1120 445 c0 -8 13 -21 30 -30 35 -18 51 -19 29 -2 -8 7 -18 20 -22
30 -8 21 -37 23 -37 2z"/>
<path d="M1208 452 c-10 -2 -18 -8 -18 -13 0 -5 11 -7 24 -3 13 3 27 1 30 -5
4 -6 16 -11 28 -11 16 0 18 3 9 14 -13 15 -47 24 -73 18z"/>
<path d="M2250 390 c0 -5 5 -10 10 -10 6 0 10 5 10 10 0 6 -4 10 -10 10 -5 0
-10 -4 -10 -10z"/>
<path d="M2280 390 c0 -5 5 -10 10 -10 6 0 10 5 10 10 0 6 -4 10 -10 10 -5 0
-10 -4 -10 -10z"/>
<path d="M2356 391 c-3 -5 1 -11 9 -15 9 -3 15 0 15 9 0 16 -16 20 -24 6z"/>
<path d="M9366 385 c-4 -11 1 -15 19 -15 28 0 33 15 9 24 -21 8 -21 8 -28 -9z"/>
<path d="M2410 375 c0 -8 5 -15 10 -15 6 0 10 7 10 15 0 8 -4 15 -10 15 -5 0
-10 -7 -10 -15z"/>
<path d="M9298 268 c-15 -5 -29 -17 -31 -26 -4 -15 -5 -15 -6 1 -1 23 -13 22
-29 -4 -8 -12 -10 -19 -5 -16 16 10 33 -7 23 -23 -7 -10 -10 -11 -10 -2 0 18
-17 15 -24 -5 -6 -21 -25 -51 -43 -71 -8 -8 -12 -34 -11 -63 l2 -49 46 0 c38
1 42 2 25 12 -30 16 -30 16 -10 38 10 11 22 17 27 14 5 -3 19 6 32 20 14 18
28 25 39 20 12 -4 18 1 23 20 3 14 9 24 13 23 3 -2 13 4 23 14 15 16 15 18 -4
22 -14 4 -19 11 -15 22 5 12 1 14 -18 9 -20 -5 -25 -2 -25 14 0 11 5 22 12 24
7 3 8 7 3 10 -6 3 -22 1 -37 -4z"/>
<path d="M2375 240 c3 -5 11 -10 16 -10 6 0 7 5 4 10 -3 6 -11 10 -16 10 -6 0
-7 -4 -4 -10z"/>
<path d="M1112 221 c4 -13 18 -16 19 -4 0 4 -5 9 -11 12 -7 2 -11 -2 -8 -8z"/>
<path d="M2295 223 c-19 -5 -35 -20 -35 -35 0 -10 48 -2 65 12 8 7 12 16 9 21
-5 10 -7 10 -39 2z"/>
<path d="M1020 165 c-11 -13 -8 -15 20 -15 28 0 31 2 20 15 -7 8 -16 15 -20
15 -4 0 -13 -7 -20 -15z"/>
<path d="M10 152 c0 -10 22 -32 32 -32 12 0 -2 28 -18 34 -8 3 -14 2 -14 -2z"/>
<path d="M850 156 c0 -2 7 -7 16 -10 8 -3 12 -2 9 4 -6 10 -25 14 -25 6z"/>
<path d="M2416 151 c-4 -7 -5 -15 -2 -18 9 -9 19 4 14 18 -4 11 -6 11 -12 0z"/>
<path d="M1104 141 c3 -5 14 -11 25 -14 14 -3 18 -1 14 9 -3 8 -14 14 -25 14
-10 0 -17 -4 -14 -9z"/>
<path d="M800 130 c0 -5 12 -10 26 -10 14 0 23 4 19 10 -3 6 -15 10 -26 10
-10 0 -19 -4 -19 -10z"/>
<path d="M910 130 c36 -11 52 -11 45 0 -3 6 -21 10 -38 9 -31 -1 -31 -1 -7 -9z"/>
<path d="M68 123 c7 -3 16 -2 19 1 4 3 -2 6 -13 5 -11 0 -14 -3 -6 -6z"/>
<path d="M2277 103 c-5 -26 -4 -26 9 -8 16 22 18 35 5 35 -5 0 -11 -12 -14
-27z"/>
<path d="M1086 86 c2 -6 15 -12 29 -12 31 -2 24 12 -9 18 -15 3 -23 1 -20 -6z"/>
<path d="M675 79 c-7 -11 37 -19 53 -10 11 6 6 10 -17 13 -18 3 -34 1 -36 -3z"/>
<path d="M861 71 c-7 -5 -10 -14 -7 -20 11 -17 -11 -13 -30 6 -12 12 -19 14
-21 6 -3 -8 -15 -10 -32 -7 -16 4 -32 1 -35 -5 -8 -13 -3 -13 166 -16 142 -3
162 15 31 28 -12 1 -25 5 -29 10 -10 9 -26 9 -43 -2z"/>
<path d="M2416 55 c-9 -26 -7 -32 5 -12 6 10 9 21 6 23 -2 3 -7 -2 -11 -11z"/>
<path d="M7 53 c-19 -18 -5 -33 31 -33 l37 0 -25 20 c-27 21 -33 23 -43 13z"/>
<path d="M240 50 c0 -6 -12 -16 -27 -23 -25 -11 -17 -12 70 -15 117 -3 163 12
63 21 -36 3 -75 11 -86 17 -14 7 -20 8 -20 0z"/>
<path d="M450 46 c0 -13 13 -16 73 -16 39 0 79 5 87 10 10 7 -7 10 -57 10 -39
0 -78 3 -87 6 -11 4 -16 1 -16 -10z"/>
<path d="M9128 13 c7 -3 16 -2 19 1 4 3 -2 6 -13 5 -11 0 -14 -3 -6 -6z"/>
</g>
</svg>
